<?xml version="1.0" encoding="UTF-8"?>
<svg id="Layer_2" data-name="Layer 2" xmlns="http://www.w3.org/2000/svg" xmlns:xlink="http://www.w3.org/1999/xlink" viewBox="0 0 2204.19 1410.27">
  <defs>
    <style>
      .cls-1 {
        opacity: .78;
      }

      .cls-1, .cls-2, .cls-3, .cls-4, .cls-5, .cls-6, .cls-7, .cls-8, .cls-9, .cls-10, .cls-11, .cls-12, .cls-13, .cls-14, .cls-15, .cls-16, .cls-17, .cls-18, .cls-19, .cls-20, .cls-21, .cls-22, .cls-23, .cls-24, .cls-25, .cls-26, .cls-27, .cls-28, .cls-29, .cls-30, .cls-31, .cls-32, .cls-33, .cls-34, .cls-35, .cls-36, .cls-37, .cls-38, .cls-39, .cls-40, .cls-41, .cls-42, .cls-43, .cls-44, .cls-45, .cls-46, .cls-47, .cls-48, .cls-49, .cls-50, .cls-51, .cls-52, .cls-53, .cls-54, .cls-55, .cls-56, .cls-57, .cls-58, .cls-59, .cls-60, .cls-61, .cls-62, .cls-63 {
        stroke-width: 0px;
      }

      .cls-1, .cls-58, .cls-59, .cls-63 {
        fill: #fff;
      }

      .cls-2 {
        fill: url(#linear-gradient);
      }

      .cls-3 {
        fill: url(#linear-gradient-38);
      }

      .cls-4 {
        fill: url(#linear-gradient-33);
      }

      .cls-5 {
        fill: url(#linear-gradient-29);
      }

      .cls-6 {
        fill: url(#linear-gradient-32);
      }

      .cls-7 {
        fill: url(#linear-gradient-30);
      }

      .cls-8 {
        fill: url(#linear-gradient-31);
      }

      .cls-9 {
        fill: url(#linear-gradient-36);
      }

      .cls-10 {
        fill: url(#linear-gradient-39);
      }

      .cls-11 {
        fill: url(#linear-gradient-34);
      }

      .cls-12 {
        fill: url(#linear-gradient-37);
      }

      .cls-13 {
        fill: url(#linear-gradient-35);
      }

      .cls-14 {
        fill: url(#linear-gradient-28);
      }

      .cls-15 {
        fill: url(#linear-gradient-25);
      }

      .cls-16 {
        fill: url(#linear-gradient-11);
      }

      .cls-17 {
        fill: url(#linear-gradient-12);
      }

      .cls-18 {
        fill: url(#linear-gradient-13);
      }

      .cls-19 {
        fill: url(#linear-gradient-10);
      }

      .cls-20 {
        fill: url(#linear-gradient-17);
      }

      .cls-21 {
        fill: url(#linear-gradient-16);
      }

      .cls-22 {
        fill: url(#linear-gradient-19);
      }

      .cls-23 {
        fill: url(#linear-gradient-15);
      }

      .cls-24 {
        fill: url(#linear-gradient-23);
      }

      .cls-25 {
        fill: url(#linear-gradient-21);
      }

      .cls-26 {
        fill: url(#linear-gradient-18);
      }

      .cls-27 {
        fill: url(#linear-gradient-14);
      }

      .cls-28 {
        fill: url(#linear-gradient-22);
      }

      .cls-29 {
        fill: url(#linear-gradient-20);
      }

      .cls-30 {
        fill: url(#linear-gradient-27);
      }

      .cls-31 {
        fill: url(#linear-gradient-24);
      }

      .cls-32 {
        fill: url(#linear-gradient-26);
      }

      .cls-33 {
        fill: url(#linear-gradient-45);
      }

      .cls-34 {
        fill: url(#linear-gradient-46);
      }

      .cls-35 {
        fill: url(#linear-gradient-44);
      }

      .cls-36 {
        fill: url(#linear-gradient-48);
      }

      .cls-37 {
        fill: url(#linear-gradient-49);
      }

      .cls-38 {
        fill: url(#linear-gradient-47);
      }

      .cls-39 {
        fill: url(#linear-gradient-42);
      }

      .cls-40 {
        fill: url(#linear-gradient-43);
      }

      .cls-41 {
        fill: url(#linear-gradient-40);
      }

      .cls-42 {
        fill: url(#linear-gradient-41);
      }

      .cls-43 {
        fill: url(#linear-gradient-55);
      }

      .cls-44 {
        fill: url(#linear-gradient-56);
      }

      .cls-45 {
        fill: url(#linear-gradient-53);
      }

      .cls-46 {
        fill: url(#linear-gradient-51);
      }

      .cls-47 {
        fill: url(#linear-gradient-52);
      }

      .cls-48 {
        fill: url(#linear-gradient-50);
      }

      .cls-49 {
        fill: url(#linear-gradient-54);
      }

      .cls-50 {
        fill: url(#linear-gradient-4);
      }

      .cls-51 {
        fill: url(#linear-gradient-2);
      }

      .cls-52 {
        fill: url(#linear-gradient-3);
      }

      .cls-53 {
        fill: url(#linear-gradient-8);
      }

      .cls-54 {
        fill: url(#linear-gradient-9);
      }

      .cls-55 {
        fill: url(#linear-gradient-7);
      }

      .cls-56 {
        fill: url(#linear-gradient-5);
      }

      .cls-57 {
        fill: url(#linear-gradient-6);
      }

      .cls-58 {
        opacity: .6;
      }

      .cls-59 {
        opacity: .62;
      }

      .cls-60 {
        fill: #bdd0fb;
      }

      .cls-61 {
        fill: #91b3fa;
      }

      .cls-62 {
        fill: #7d97f4;
      }
    </style>
    <linearGradient id="linear-gradient" x1="131.32" y1="1075.19" x2="1065.46" y2="1075.19" gradientUnits="userSpaceOnUse">
      <stop offset="0" stop-color="#dae3fe"/>
      <stop offset="1" stop-color="#e9effd"/>
    </linearGradient>
    <linearGradient id="linear-gradient-2" x1="104.38" y1="485.84" x2="629.09" y2="485.84" xlink:href="#linear-gradient"/>
    <linearGradient id="linear-gradient-3" x1="1138.73" y1="1075.19" x2="2072.86" y2="1075.19" xlink:href="#linear-gradient"/>
    <linearGradient id="linear-gradient-4" x1="1575.1" y1="485.84" x2="2099.8" y2="485.84" xlink:href="#linear-gradient"/>
    <linearGradient id="linear-gradient-5" x1="1097.11" y1="1311.31" x2="1106.12" y2="631.53" gradientUnits="userSpaceOnUse">
      <stop offset="0" stop-color="#5fbd80"/>
      <stop offset="1" stop-color="#5fbd80"/>
    </linearGradient>
    <linearGradient id="linear-gradient-6" x1="1163.34" y1="19.2" x2="1147.34" y2="85.2" gradientUnits="userSpaceOnUse">
      <stop offset="0" stop-color="#09005d"/>
      <stop offset="1" stop-color="#1a0f91"/>
    </linearGradient>
    <linearGradient id="linear-gradient-7" x1="810.14" y1="1655.44" x2="1143.17" y2="941.37" xlink:href="#linear-gradient-6"/>
    <linearGradient id="linear-gradient-8" x1="806.76" y1="-822.26" x2="818.11" y2="-934.2" gradientTransform="translate(1977.25 1239.56) rotate(-68)" gradientUnits="userSpaceOnUse">
      <stop offset="0" stop-color="#5fbd80"/>
      <stop offset="1" stop-color="#5fbd80" stop-opacity=".5"/>
    </linearGradient>
    <linearGradient id="linear-gradient-9" x1="707.5" y1="-880.66" x2="751.71" y2="-970.74" xlink:href="#linear-gradient-8"/>
    <linearGradient id="linear-gradient-10" x1="940.76" y1="-886.67" x2="875.78" y2="-996.54" xlink:href="#linear-gradient-8"/>
    <linearGradient id="linear-gradient-11" x1="491.47" y1="1.98" x2="543.69" y2="527.93" gradientTransform="translate(840.59 241.88) rotate(-25.08)" xlink:href="#linear-gradient-6"/>
    <linearGradient id="linear-gradient-12" x1="1254.7" y1="-408.09" x2="1236.7" y2="-261.08" gradientTransform="matrix(1,0,0,1,0,0)" xlink:href="#linear-gradient-8"/>
    <linearGradient id="linear-gradient-13" x1="794.59" y1="-1085.32" x2="856.47" y2="-1085.32" gradientTransform="translate(1977.25 1239.56) rotate(-68)" xlink:href="#linear-gradient-6"/>
    <linearGradient id="linear-gradient-14" x1="801.97" y1="-1017.99" x2="842.85" y2="-1017.99" gradientTransform="translate(1977.25 1239.56) rotate(-68)" xlink:href="#linear-gradient-6"/>
    <linearGradient id="linear-gradient-15" x1="645.53" y1="73.74" x2="525.54" y2="487.72" xlink:href="#linear-gradient-6"/>
    <linearGradient id="linear-gradient-16" x1="796.4" y1="563.39" x2="567.4" y2="433.39" gradientTransform="matrix(1,0,0,1,0,0)" xlink:href="#linear-gradient-8"/>
    <linearGradient id="linear-gradient-17" x1="547.61" y1="158.59" x2="541.61" y2="406.59" gradientTransform="matrix(1,0,0,1,0,0)" xlink:href="#linear-gradient-8"/>
    <linearGradient id="linear-gradient-18" x1="-587.3" y1="420.79" x2="-555.19" y2="420.79" gradientTransform="translate(-.81 -35.25) rotate(-176.38) scale(1 -1)" xlink:href="#linear-gradient-8"/>
    <linearGradient id="linear-gradient-19" x1="-7385.64" y1="1129.83" x2="-7347.9" y2="1129.83" gradientTransform="translate(-5589.1 633.38) rotate(177.09) scale(1 -1)" xlink:href="#linear-gradient-6"/>
    <linearGradient id="linear-gradient-20" x1="-7301.85" y1="627.58" x2="-7286.55" y2="627.58" gradientTransform="translate(-5343.75 -68.93) rotate(-173.57) scale(1 -1)" gradientUnits="userSpaceOnUse">
      <stop offset="0" stop-color="#ff928e"/>
      <stop offset="1" stop-color="#feb3b1"/>
    </linearGradient>
    <linearGradient id="linear-gradient-21" x1="-7258.87" y1="883.17" x2="-7199.66" y2="883.17" gradientTransform="translate(-5515.2 760.29) rotate(178) scale(1 -1)" xlink:href="#linear-gradient-6"/>
    <linearGradient id="linear-gradient-22" x1="-7270.07" y1="1175.06" x2="-7254.85" y2="1175.06" gradientTransform="translate(-5596.72 1192.62) rotate(172.17) scale(1 -1)" xlink:href="#linear-gradient-20"/>
    <linearGradient id="linear-gradient-23" x1="-7312.37" y1="494.62" x2="-7208.59" y2="494.62" gradientTransform="translate(-5343.75 -68.93) rotate(-173.57) scale(1 -1)" xlink:href="#linear-gradient-6"/>
    <linearGradient id="linear-gradient-24" x1="1943.12" y1="975.52" x2="1896.12" y2="1061.52" xlink:href="#linear-gradient-6"/>
    <linearGradient id="linear-gradient-25" x1="1740.03" y1="906.09" x2="1796.03" y2="1116.09" gradientTransform="matrix(1,0,0,1,0,0)" xlink:href="#linear-gradient-8"/>
    <linearGradient id="linear-gradient-26" x1="1838.18" y1="765.78" x2="1761.18" y2="834.78" gradientTransform="matrix(1,0,0,1,0,0)" xlink:href="#linear-gradient-20"/>
    <linearGradient id="linear-gradient-27" x1="1993.01" y1="771.97" x2="1927.01" y2="857.97" gradientTransform="matrix(1,0,0,1,0,0)" xlink:href="#linear-gradient-8"/>
    <linearGradient id="linear-gradient-28" x1="1642.12" y1="813.22" x2="1644.12" y2="891.22" gradientTransform="matrix(1,0,0,1,0,0)" xlink:href="#linear-gradient-20"/>
    <linearGradient id="linear-gradient-29" x1="1592.2" y1="814.5" x2="1594.2" y2="892.5" gradientTransform="matrix(1,0,0,1,0,0)" xlink:href="#linear-gradient-20"/>
    <linearGradient id="linear-gradient-30" x1="-7133.11" y1="104.34" x2="-7251.5" y2="321.87" xlink:href="#linear-gradient-20"/>
    <linearGradient id="linear-gradient-31" x1="-5896.89" y1="-1442.53" x2="-5949.21" y2="-1373.31" gradientTransform="translate(-3599.53 -1963.55) rotate(-138.35) scale(1 -1)" xlink:href="#linear-gradient-20"/>
    <linearGradient id="linear-gradient-32" x1="-5936.85" y1="-1425.83" x2="-5874.35" y2="-1425.83" gradientTransform="translate(-3599.53 -1963.55) rotate(-138.35) scale(1 -1)" xlink:href="#linear-gradient-6"/>
    <linearGradient id="linear-gradient-33" x1="-5973.52" y1="-1387.72" x2="-5931.55" y2="-1430.77" gradientTransform="translate(-3599.53 -1963.55) rotate(-138.35) scale(1 -1)" xlink:href="#linear-gradient-20"/>
    <linearGradient id="linear-gradient-34" x1="1095.22" y1="21.17" x2="773.36" y2="614.83" gradientTransform="translate(2355.33 1548.24) rotate(-130.41) scale(1 -1)" xlink:href="#linear-gradient-8"/>
    <linearGradient id="linear-gradient-35" x1="1416.2" y1="876.24" x2="1209.34" y2="1257.78" gradientTransform="translate(3309.61 -98.33) rotate(-169.3) scale(1 -1)" xlink:href="#linear-gradient-8"/>
    <linearGradient id="linear-gradient-36" x1="2070.88" y1="1219.03" x2="1936.1" y2="1467.61" gradientTransform="translate(3262.11 -1553.17) rotate(160.95) scale(1 -1)" xlink:href="#linear-gradient-8"/>
    <linearGradient id="linear-gradient-37" x1="458.75" y1="1164.14" x2="474.75" y2="1372.14" xlink:href="#linear-gradient-6"/>
    <linearGradient id="linear-gradient-38" x1="442.38" y1="1374.6" x2="460.6" y2="1374.6" gradientTransform="matrix(1,0,0,1,0,0)" xlink:href="#linear-gradient-20"/>
    <linearGradient id="linear-gradient-39" x1="732.83" y1="978.33" x2="597.82" y2="1092.34" xlink:href="#linear-gradient-6"/>
    <linearGradient id="linear-gradient-40" x1="369.53" y1="1171.01" x2="385.53" y2="1379.01" xlink:href="#linear-gradient-6"/>
    <linearGradient id="linear-gradient-41" x1="376.68" y1="1373.66" x2="392.42" y2="1373.66" gradientTransform="matrix(1,0,0,1,0,0)" xlink:href="#linear-gradient-20"/>
    <linearGradient id="linear-gradient-42" x1="713.58" y1="955.52" x2="578.56" y2="1069.53" xlink:href="#linear-gradient-6"/>
    <linearGradient id="linear-gradient-43" x1="420.59" y1="996.48" x2="630.59" y2="688.48" gradientTransform="matrix(1,0,0,1,0,0)" xlink:href="#linear-gradient-8"/>
    <linearGradient id="linear-gradient-44" x1="496.85" y1="989.81" x2="561.35" y2="895.81" gradientTransform="matrix(1,0,0,1,0,0)" xlink:href="#linear-gradient-20"/>
    <linearGradient id="linear-gradient-45" x1="586.57" y1="854.92" x2="650.07" y2="797.92" gradientTransform="matrix(1,0,0,1,0,0)" xlink:href="#linear-gradient-20"/>
    <linearGradient id="linear-gradient-46" x1="696.66" y1="800" x2="657.66" y2="815" gradientTransform="matrix(1,0,0,1,0,0)" xlink:href="#linear-gradient-20"/>
    <linearGradient id="linear-gradient-47" x1="366.7" y1="959.73" x2="576.7" y2="651.73" gradientTransform="matrix(1,0,0,1,0,0)" xlink:href="#linear-gradient-8"/>
    <linearGradient id="linear-gradient-48" x1="480.01" y1="1054.68" x2="314.01" y2="1027.18" gradientTransform="matrix(1,0,0,1,0,0)" xlink:href="#linear-gradient-20"/>
    <linearGradient id="linear-gradient-49" x1="650.32" y1="753.37" x2="569.32" y2="867.37" xlink:href="#linear-gradient-6"/>
    <linearGradient id="linear-gradient-50" x1="527.13" y1="930.43" x2="492.13" y2="964.43" gradientTransform="matrix(1,0,0,1,0,0)" xlink:href="#linear-gradient-20"/>
    <linearGradient id="linear-gradient-51" x1="441.02" y1="863.97" x2="422.52" y2="929.97" gradientTransform="matrix(1,0,0,1,0,0)" xlink:href="#linear-gradient-20"/>
    <linearGradient id="linear-gradient-52" x1="-3758.73" y1="2210.4" x2="-3802.23" y2="2116.4" gradientTransform="translate(5673.55 -1600.3) rotate(-41.75)" xlink:href="#linear-gradient-20"/>
    <linearGradient id="linear-gradient-53" x1="-5552.53" y1="-1723.89" x2="-5537.96" y2="-1640.81" gradientTransform="translate(5673.55 -1600.3) rotate(-41.75)" xlink:href="#linear-gradient-6"/>
    <linearGradient id="linear-gradient-54" x1="-3772.65" y1="2216.83" x2="-3816.15" y2="2122.83" gradientTransform="translate(5673.55 -1600.3) rotate(-41.75)" xlink:href="#linear-gradient-20"/>
    <linearGradient id="linear-gradient-55" x1="940.22" y1="1716.11" x2="1273.25" y2="1002.03" xlink:href="#linear-gradient-6"/>
    <linearGradient id="linear-gradient-56" x1="1200.06" y1="-.85" x2="1168.06" y2="81.15" xlink:href="#linear-gradient-6"/>
  </defs>
  <g id="Illustration">
    <g>
      <path class="cls-63" d="m564.26,1407.39s-195.67-25.55-288.58-5.6c-92.91,19.96-323.05-88.3-246.78-258.23,76.28-169.92,162.64-275.22,62.85-368.14C-8.02,682.51-39.4,505.55,63.48,406.1c102.88-99.45,133.85,2.87,215.82-33.75,81.97-36.62-22.12-227.66,209.44-281.65,231.55-53.99,411.48,109.14,516.76,90.71,105.28-18.43,267.16-131.37,380.78-126.61,113.61,4.75,99.52,171.02,250.28,161.33,150.76-9.69,269.11-26.44,366.77,115.1,97.67,141.54,74.18,321.06-18.94,392.01-93.11,70.94-74.95,166.35,96.74,171.82,171.68,5.47,152.34,203.36,12.25,349.44-140.1,146.09-260.28,147.7-400.22,157.28-139.94,9.57-1128.9,5.6-1128.9,5.6Z"/>
      <g>
        <g>
          <path class="cls-60" d="m1117.22,1351.65c5.3-4.55,3.46-13.3-3.22-15.16-75.17-20.95-385.36-125.15-306-400.04,90.12-312.14,135.03-396.31,13.01-539.64-111.1-130.5-232.64-145.81-335.68-122.75-7.19,1.61-7.29,12.06-.12,13.73,61.73,14.4,200.44,58.8,228.59,171.1,36.45,145.43-46.86,465.3,54.77,649.68,100.4,182.15,218.07,205.74,340.57,244.73,2.79.89,5.84.27,8.08-1.65h0Z"/>
          <path class="cls-60" d="m92.54,551.92c-7.4-4.64-7.49-15.62-.19-20.44,20.09-13.26,55.42-41.96,86.79-94.91,31.46-53.09,114.01-167.74,275.34-130.54,161.33,37.2,203.41,325.58,224.52,608.68,21.11,283.1,334.72,398.4,334.72,398.4l83.92,36.57s-300.79-61.69-407.85-277.47c-107.06-215.78-76.73-541.54-262.53-543.82-178.35-2.19-207.14,103.61-334.72,23.53Z"/>
          <g>
            <path class="cls-60" d="m48.46,871.43c-9.34,3.33-17.48-7.22-12.03-15.65,31.22-48.28,102.59-136.64,203.42-129.73,138.19,9.47,237.34,76.6,360.55,306.54,119.76,223.49,411.31,311.54,490.88,316.83,3.69.24,6.67,3.13,7.08,6.88h0c.54,4.9-3.45,9.08-8.26,8.64-55.85-5.11-349.08-35.43-494.21-120.36-152.38-89.17-367.07-437.56-547.43-373.16Z"/>
            <path class="cls-2" d="m132.39,806.8c22.63-9.06,46.64-13.33,70.79-14.69,6.04-.44,12.09-.36,18.14-.42,6.05.23,12.11.3,18.13.93,12.1.82,24.05,2.97,35.91,5.44,23.64,5.38,46.57,13.82,68.16,24.84,21.6,11.02,41.89,24.53,60.59,39.9,37.46,30.81,68.57,68.44,95.46,108.41,3.34,5.02,6.45,10.18,9.69,15.26,3.18,5.1,6.49,10.21,9.55,15.3l9.3,15.3,4.67,7.64,4.82,7.54,9.63,15.09,9.97,14.86c6.54,9.98,13.64,19.56,20.5,29.31,14.19,19.15,28.79,38.01,44.51,55.9,15.73,17.87,32.28,35.01,49.87,51.02,35.18,31.99,74.73,59.15,117.6,79.86,21.4,10.41,43.55,19.31,66.11,27.04,22.57,7.72,45.53,14.32,68.67,20.34,46.29,11.98,93.32,21.21,140.19,31.03.55.11.91.65.79,1.21-.11.54-.64.89-1.18.8-23.56-4.31-47.13-8.61-70.64-13.26-23.51-4.62-46.99-9.53-70.32-15.14-46.64-11.14-92.83-25.49-136.45-46.09-43.59-20.55-84.31-47.5-120.04-79.92-17.91-16.16-34.75-33.45-50.75-51.46-15.98-18.04-30.81-37.01-45.22-56.28-6.96-9.8-14.17-19.44-20.8-29.47l-10.11-14.93-9.77-15.15-4.88-7.57-4.73-7.67-9.43-15.36c-6.32-10.17-12.53-20.25-18.95-30.29-26.37-39.51-56.83-76.59-93.37-106.86-18.3-15.01-37.84-28.56-58.77-39.57-20.91-11.04-43.15-19.56-66.15-25.12-2.87-.7-5.79-1.22-8.68-1.84-2.9-.56-5.78-1.29-8.71-1.66-5.85-.88-11.69-1.88-17.59-2.38-5.88-.75-11.8-.95-17.71-1.31-5.92-.08-11.85-.3-17.77,0-11.85.37-23.68,1.52-35.37,3.59-11.64,2.11-23.34,4.81-34.3,8.96l-.12.04c-.88.33-1.86-.11-2.19-.99-.33-.87.1-1.83.96-2.18Z"/>
          </g>
          <path class="cls-51" d="m105.62,536.18c8.05.26,16.27-.82,24.22-2.45,7.96-1.7,15.79-4.05,23.29-7.18,15.02-6.22,28.78-15.2,40.7-26.12,5.97-5.45,11.5-11.39,16.63-17.64,5.06-6.32,9.7-12.97,13.94-19.88,2.07-3.48,4.1-7,6-10.58l5.61-11.01c3.9-7.55,8.47-14.67,13.37-21.52,9.81-13.7,21.15-26.21,33.55-37.56,12.43-11.31,25.86-21.61,40.43-30.17,14.57-8.52,30.17-15.55,46.66-19.93,8.23-2.21,16.65-3.8,25.17-4.64,8.53-.79,17.15-.74,25.69.07,4.28.35,8.52,1.1,12.75,1.82,4.19.94,8.39,1.85,12.48,3.15,8.2,2.5,16.23,5.62,23.78,9.63,15.25,7.77,28.88,18.26,41.02,30,24.15,23.76,42.51,52.3,57.45,82.03,7.55,14.87,14.11,30.17,20.18,45.63,6.11,15.45,11.5,31.15,16.42,46.98,9.62,31.73,17.71,63.86,24.11,96.31.15.74-.34,1.46-1.08,1.61-.72.14-1.42-.31-1.59-1.01-8.01-32.01-16.78-63.81-27.48-94.94-5.37-15.55-10.91-31.03-17.28-46.16-6.3-15.15-13.08-30.11-20.78-44.55-7.63-14.47-16.1-28.46-25.41-41.79-9.34-13.31-19.73-25.85-31.35-37.03-5.9-5.48-11.95-10.8-18.48-15.45-6.41-4.81-13.26-8.97-20.34-12.61-7.05-3.72-14.5-6.57-22.08-8.87-3.78-1.2-7.67-2.01-11.53-2.88-3.91-.65-7.81-1.33-11.77-1.64-7.89-.74-15.85-.71-23.77-.05-7.92.75-15.78,2.19-23.5,4.22-15.48,4.03-30.31,10.62-44.26,18.69-27.89,16.24-52.51,38.46-72.09,64.22-4.85,6.47-9.39,13.19-13.23,20.22l-5.9,10.93c-2.06,3.66-4.25,7.26-6.48,10.81-4.56,7.07-9.54,13.86-14.96,20.31-5.49,6.38-11.39,12.43-17.75,17.96-12.81,10.96-27.5,19.71-43.24,25.55-15.76,5.76-32.49,8.94-49.32,7.73-.61-.04-1.07-.57-1.03-1.19.04-.6.55-1.05,1.14-1.03h.09Z"/>
        </g>
        <g>
          <path class="cls-60" d="m1086.97,1351.65c-5.3-4.55-3.46-13.3,3.22-15.16,75.17-20.95,385.36-125.15,306-400.04-90.12-312.14-135.03-396.31-13.01-539.64,111.1-130.5,232.64-145.81,335.68-122.75,7.19,1.61,7.29,12.06.12,13.73-61.73,14.4-200.44,58.8-228.59,171.1-36.45,145.43,46.86,465.3-54.77,649.68-100.4,182.15-218.07,205.74-340.57,244.73-2.79.89-5.84.27-8.08-1.65h0Z"/>
          <path class="cls-60" d="m2111.65,551.92c7.4-4.64,7.49-15.62.19-20.44-20.09-13.26-55.42-41.96-86.79-94.91-31.46-53.09-114.01-167.74-275.34-130.54-161.33,37.2-203.41,325.58-224.52,608.68-21.11,283.1-334.72,398.4-334.72,398.4l-83.92,36.57s300.79-61.69,407.85-277.47c107.06-215.78,76.74-541.54,262.53-543.82,178.35-2.19,207.14,103.61,334.72,23.53Z"/>
          <g>
            <path class="cls-60" d="m2155.72,871.43c9.34,3.33,17.48-7.22,12.03-15.65-31.22-48.28-102.59-136.64-203.42-129.73-138.19,9.47-237.34,76.6-360.55,306.54-119.76,223.49-411.31,311.54-490.88,316.83-3.69.24-6.67,3.13-7.08,6.88h0c-.54,4.9,3.45,9.08,8.26,8.64,55.85-5.11,349.08-35.43,494.21-120.36,152.38-89.17,367.07-437.56,547.43-373.16Z"/>
            <path class="cls-52" d="m2070.45,809.91c-10.96-4.15-22.67-6.85-34.3-8.96-11.68-2.06-23.52-3.22-35.37-3.59-5.92-.3-11.85-.09-17.77,0-5.91.36-11.83.56-17.71,1.31-5.9.5-11.74,1.5-17.59,2.38-2.94.37-5.81,1.1-8.71,1.66-2.89.62-5.8,1.14-8.68,1.84-23,5.56-45.24,14.09-66.15,25.12-20.94,11.01-40.47,24.56-58.77,39.57-36.54,30.27-67,67.35-93.37,106.86-6.42,10.03-12.63,20.11-18.95,30.29l-9.43,15.36-4.73,7.67-4.88,7.57-9.77,15.15-10.11,14.93c-6.64,10.02-13.84,19.66-20.8,29.47-14.4,19.27-29.24,38.24-45.22,56.28-15.99,18.01-32.84,35.3-50.75,51.46-35.74,32.42-76.45,59.37-120.04,79.92-43.62,20.6-89.81,34.95-136.45,46.09-23.33,5.62-46.81,10.52-70.32,15.14-23.51,4.65-47.07,8.95-70.64,13.26-.55.1-1.09-.27-1.19-.82-.1-.55.26-1.07.8-1.18,46.88-9.82,93.9-19.05,140.19-31.03,23.13-6.01,46.1-12.61,68.67-20.34,22.56-7.73,44.7-16.63,66.11-27.04,42.87-20.71,82.42-47.86,117.6-79.86,17.59-16.01,34.14-33.15,49.87-51.02,15.71-17.9,30.32-36.75,44.51-55.9,6.86-9.75,13.96-19.33,20.5-29.31l9.97-14.86,9.63-15.09,4.82-7.54,4.67-7.64,9.3-15.3c3.06-5.1,6.37-10.2,9.55-15.3,3.24-5.08,6.35-10.24,9.69-15.26,26.88-39.97,57.99-77.59,95.46-108.41,18.7-15.37,38.99-28.88,60.59-39.9,21.59-11.02,44.52-19.46,68.16-24.84,11.86-2.47,23.82-4.61,35.91-5.44,6.03-.62,12.09-.7,18.13-.93,6.05.05,12.11-.03,18.14.42,24.15,1.37,48.15,5.64,70.79,14.69.87.35,1.29,1.34.94,2.21-.34.86-1.31,1.28-2.17.96l-.12-.04Z"/>
          </g>
          <path class="cls-50" d="m2098.77,538.39c-16.83,1.2-33.56-1.98-49.32-7.73-15.74-5.84-30.43-14.59-43.24-25.55-6.36-5.54-12.25-11.58-17.75-17.96-5.42-6.45-10.4-13.25-14.96-20.31-2.23-3.56-4.42-7.15-6.48-10.81l-5.9-10.93c-3.84-7.04-8.38-13.75-13.23-20.22-19.58-25.77-44.2-47.99-72.09-64.22-13.95-8.07-28.78-14.66-44.26-18.69-7.73-2.03-15.59-3.48-23.5-4.22-7.92-.66-15.88-.7-23.77.05-3.95.31-7.86,1-11.77,1.64-3.87.87-7.75,1.68-11.53,2.88-7.58,2.3-15.03,5.15-22.08,8.87-7.08,3.64-13.92,7.81-20.34,12.61-6.52,4.65-12.58,9.97-18.48,15.45-11.62,11.18-22.01,23.73-31.35,37.03-9.32,13.33-17.78,27.33-25.42,41.79-7.7,14.44-14.48,29.39-20.78,44.55-6.38,15.13-11.91,30.62-17.28,46.16-10.69,31.13-19.47,62.93-27.48,94.94-.18.73-.93,1.18-1.66,1-.71-.18-1.15-.88-1.01-1.59,6.4-32.45,14.49-64.58,24.11-96.31,4.92-15.83,10.32-31.53,16.42-46.98,6.06-15.46,12.63-30.76,20.18-45.63,14.94-29.73,33.3-58.27,57.45-82.03,12.13-11.74,25.77-22.23,41.02-30,7.55-4,15.59-7.13,23.78-9.63,4.09-1.3,8.29-2.21,12.48-3.15,4.23-.72,8.47-1.47,12.75-1.82,8.55-.81,17.16-.86,25.69-.07,8.52.84,16.95,2.43,25.17,4.64,16.49,4.38,32.08,11.41,46.66,19.93,14.58,8.56,28,18.86,40.43,30.17,12.39,11.36,23.74,23.86,33.55,37.56,4.89,6.86,9.46,13.97,13.37,21.52l5.61,11.01c1.9,3.58,3.93,7.09,6,10.58,4.24,6.91,8.88,13.56,13.93,19.88,5.14,6.25,10.66,12.19,16.63,17.64,11.92,10.92,25.68,19.9,40.7,26.12,7.5,3.13,15.32,5.48,23.29,7.18,7.95,1.63,16.17,2.71,24.22,2.45h.09c.61-.02,1.13.46,1.15,1.07.02.6-.44,1.1-1.03,1.14Z"/>
        </g>
      </g>
      <g>
        <g>
          <path class="cls-56" d="m1349.69,345.28v1010.07c0,3.17-.29,6.28-.88,9.3-4.03,21.43-21.83,38.02-43.85,40.27-1.67.16-3.38.25-5.09.25h-393.32c-1.71,0-3.42-.09-5.09-.25-22.01-2.25-39.82-18.84-43.85-40.27-.59-3.02-.88-6.12-.88-9.3V345.28c0-27.51,22.31-49.81,49.81-49.81h393.32c27.51,0,49.81,22.31,49.81,49.81Z"/>
          <path class="cls-57" d="m1237.15,260.4v35.07h-272.36v-35.07c0-2.7.45-5.29,1.24-7.7,3.11-9.23,11.5-15.76,20.78-15.76h231.55c9.27,0,15.67,6.53,17.87,15.76.61,2.41.92,5,.92,7.7Z"/>
        </g>
        <polygon class="cls-63" points="1198.88 471.04 1124.6 471.04 1124.6 394.51 1084.09 394.51 1084.09 471.04 1007.56 471.04 1007.56 511.56 1084.09 511.56 1084.09 585.84 1124.6 585.84 1124.6 511.56 1198.88 511.56 1198.88 471.04"/>
        <path class="cls-55" d="m1349.69,687.13v668.88c0,2.95-.25,5.85-.77,8.64-3.8,21.63-21.72,38.06-43.96,40.27-1.67.16-3.38.25-5.09.25h-393.32c-1.71,0-3.42-.09-5.09-.25-22.24-2.21-40.16-18.64-43.96-40.27-.52-2.79-.77-5.69-.77-8.64v-668.88h492.95Z"/>
      </g>
      <g>
        <path class="cls-63" d="m1556.84,234.75l-2.59-2.25c-.07-.06-.21-.19-.42-.38-.72-.67-2.22-2.07-4.4-3.87-.59-.49-.72-1.42-.28-2.08.44-.66,1.27-.8,1.86-.31.93.77,1.74,1.46,2.42,2.07.17-.45.53-.79.99-.88.72-.14,1.41.4,1.54,1.21.29,1.85.42,2.87.42,2.87l.46,3.63Zm-3.26-14.49c-.11.07-.22.11-.35.15-.72.18-1.43-.33-1.58-1.13-.62-3.1-1.3-6.27-2.04-9.41-.18-.79.23-1.61.95-1.81.71-.21,1.43.27,1.62,1.06.74,3.18,1.44,6.38,2.06,9.51.13.66-.15,1.32-.66,1.63Zm-9.95,2.68c-.4.24-.9.25-1.32-.03-2.5-1.69-5.04-3.22-7.54-4.53-.66-.35-.95-1.23-.64-1.98.32-.74,1.1-1.06,1.77-.71,2.58,1.36,5.2,2.93,7.78,4.68.63.42.83,1.34.45,2.04-.13.23-.3.41-.5.54Zm-15.73-8.21c-.31.19-.69.24-1.05.11-2.78-1.02-5.55-1.78-8.23-2.26-.72-.13-1.22-.89-1.1-1.7.12-.81.8-1.36,1.52-1.23,2.81.51,5.72,1.31,8.63,2.37.7.26,1.08,1.09.85,1.87-.11.38-.34.67-.63.84Zm21.28-13.3c-.08.05-.16.09-.26.12-.7.24-1.44-.21-1.65-1-.83-3.09-1.72-6.19-2.64-9.21-.24-.78.14-1.62.83-1.89.69-.27,1.45.15,1.69.93.93,3.06,1.83,6.19,2.67,9.32.18.69-.09,1.4-.63,1.73Zm-38.36,10.32c-.18.11-.38.17-.6.18-2.01.07-4.01.31-5.94.71-.86.18-1.69.34-2.51.48-.72.12-1.4-.44-1.51-1.25-.11-.81.39-1.57,1.12-1.69.78-.13,1.59-.28,2.42-.46,2.06-.43,4.2-.69,6.35-.76.73-.03,1.35.62,1.37,1.44.02.58-.27,1.09-.69,1.35Zm-30.01,15.62l-2.34,1.37c-1.04-1.81-2.52-2.92-4.97-3.73-.7-.23-1.1-1.06-.89-1.85.21-.79.95-1.24,1.65-1,1.94.64,3.44,1.49,4.64,2.64.56-.04,1.1.32,1.32.92l.6,1.65Zm12.76-13.71c-.2.12-.42.18-.66.18-3.24-.06-6.24-.53-8.92-1.39-.7-.23-1.11-1.05-.91-1.84.2-.79.94-1.24,1.64-1.02,2.45.79,5.22,1.22,8.22,1.27.73.01,1.32.69,1.31,1.51,0,.55-.29,1.03-.69,1.28Zm50-30.64c-.05.03-.1.06-.16.08-.68.29-1.45-.09-1.72-.85-1.04-3.03-2.14-6.04-3.27-8.95-.29-.75.02-1.62.69-1.96.67-.33,1.45.02,1.75.77,1.14,2.95,2.26,6,3.31,9.06.24.7-.02,1.49-.6,1.84Zm-67.17,35.5c-.05.03-.1.06-.16.08-.68.3-1.45-.08-1.72-.85-1.23-3.53-2.26-6.61-3.08-9.16-.25-.77.12-1.62.8-1.9.69-.28,1.45.13,1.7.9.81,2.53,1.83,5.58,3.05,9.09.24.7-.02,1.49-.6,1.84Zm-10.41,4.56c-.25.15-.54.22-.85.16-2.58-.47-5.4-1.03-8.62-1.92-.71-.2-1.15-1-.97-1.8.18-.8.9-1.28,1.61-1.08,3.13.87,5.89,1.41,8.41,1.87.72.13,1.22.9,1.1,1.71-.07.47-.33.85-.68,1.07Zm11.31-15.1c-.45.28-1.03.24-1.46-.14-2.53-2.25-4.05-4.68-4.96-6.13-.28-.45-.51-.82-.71-1.07-.54-.55-.65-1.56-.15-2.17.49-.61,1.27-.73,1.82-.17.1.1.21.22.33.37.24.31.53.76.89,1.33.88,1.4,2.21,3.52,4.44,5.51.57.51.67,1.45.21,2.09-.11.16-.25.29-.4.38Zm59.34-42.8s-.03.02-.05.03c-.66.36-1.45.05-1.78-.68-1.13-2.59-2.31-5.15-3.51-7.6l-.47-.96c-.35-.72-.12-1.62.52-2.02,0,0,0,0,0,0,.64-.39,1.45-.13,1.8.58l.48.98c1.21,2.49,2.41,5.09,3.56,7.72.31.72.06,1.58-.56,1.96Zm-87.46,53.16c-.32.2-.72.25-1.1.09-2.69-1.11-5.41-2.42-8.1-3.89-.66-.36-.93-1.25-.61-1.99.32-.73,1.12-1.04,1.78-.68,2.61,1.43,5.25,2.7,7.85,3.78.69.28,1.04,1.14.79,1.91-.12.35-.34.62-.61.79Zm-15.58-8.5c-.4.25-.91.25-1.33-.03-.53-.36-1.07-.73-1.61-1.11-1.98-1.39-3.89-2.91-5.68-4.51-.57-.51-.67-1.45-.21-2.09.47-.64,1.3-.74,1.87-.23,1.71,1.53,3.54,2.98,5.43,4.31.53.37,1.05.73,1.58,1.09.63.42.83,1.34.45,2.04-.13.23-.3.41-.5.54Zm94.62-61.66c-.61.37-1.38.15-1.76-.51-1.55-2.76-3.16-5.45-4.8-8-.43-.67-.29-1.59.3-2.07.6-.51,1.43-.33,1.85.34,1.67,2.6,3.31,5.34,4.89,8.15.39.69.2,1.61-.42,2.05-.02.02-.05.03-.07.05Zm-108.12,49.52c-.52.32-1.19.21-1.61-.3-2-2.42-3.85-5.05-5.51-7.8-.41-.68-.25-1.6.36-2.06.63-.44,1.43-.28,1.84.4,1.58,2.63,3.35,5.13,5.26,7.45.5.6.46,1.54-.08,2.1-.08.08-.17.16-.26.21Zm97.97-65.29c-.55.33-1.24.2-1.66-.36-1.85-2.5-3.78-4.9-5.73-7.16-.51-.59-.5-1.53.03-2.1.53-.56,1.37-.56,1.88.03,2,2.31,3.97,4.77,5.86,7.33.47.63.39,1.57-.17,2.09-.07.06-.14.12-.21.16Zm-107.66,49.23s-.04.02-.06.04c-.66.36-1.45.04-1.77-.7-1.27-2.95-2.37-6.06-3.27-9.23-.22-.78.16-1.62.86-1.87.7-.25,1.45.18,1.67.96.87,3.04,1.92,6.02,3.13,8.84.31.72.06,1.57-.56,1.95Zm95.57-63.16c-.47.29-1.08.23-1.51-.18-2.18-2.11-4.43-4.11-6.72-5.93-.6-.48-.74-1.4-.31-2.07.43-.67,1.26-.82,1.85-.35,2.35,1.88,4.68,3.93,6.91,6.1.55.54.61,1.48.13,2.1-.11.14-.23.25-.37.33Zm-100.83,44.69c-.13.08-.26.13-.41.16-.72.14-1.41-.4-1.53-1.21-.33-2.17-1.07-8.2-.58-10.29h-.02s.94-4.07.94-4.07c.18-.79.91-1.27,1.62-1.07.71.2,1.14,1.02.95,1.81l-.97,4.2c-.07.74-.08,4.05.67,8.92.1.64-.19,1.26-.67,1.56Zm86.7-55.93c-.39.24-.88.25-1.29-.01-2.48-1.58-5.05-3.01-7.64-4.26-.67-.33-.98-1.2-.69-1.95.29-.75,1.07-1.1,1.75-.78,2.67,1.29,5.33,2.78,7.89,4.41.64.41.86,1.31.5,2.03-.13.25-.31.44-.52.57Zm-15.91-7.7c-.3.18-.67.24-1.03.12-2.69-.93-5.48-1.7-8.28-2.3-.72-.15-1.19-.93-1.05-1.74.14-.8.83-1.33,1.55-1.18,2.9.62,5.77,1.42,8.56,2.38.7.24,1.1,1.07.88,1.86-.11.39-.34.69-.63.87Zm-68.3,40.47c-.29.17-.63.23-.97.13-.71-.2-1.14-1.02-.95-1.81l2.17-9.41c.18-.8.91-1.28,1.62-1.07.71.2,1.14,1.02.95,1.81l-2.17,9.42c-.1.42-.34.74-.65.93Zm51.29-44.13c-.22.14-.48.2-.75.17-2.78-.26-5.65-.38-8.54-.35-.73,0-1.33-.65-1.34-1.47,0-.82.58-1.49,1.31-1.5,2.98-.04,5.94.08,8.8.36.73.07,1.27.79,1.21,1.61-.04.52-.31.95-.69,1.18Zm-46.94,25.3c-.29.17-.63.23-.97.13-.71-.21-1.14-1.02-.95-1.81l2.17-9.42c.18-.8.91-1.27,1.62-1.07.71.21,1.14,1.02.95,1.81l-2.17,9.42c-.1.41-.34.74-.65.93Zm29.61-25.1c-.15.09-.32.15-.5.17-2.77.31-5.63.76-8.49,1.34-.72.15-1.41-.39-1.54-1.2-.13-.81.35-1.59,1.07-1.73,2.93-.59,5.85-1.05,8.69-1.37.73-.08,1.38.51,1.45,1.33.06.61-.23,1.18-.69,1.45Zm-17.07,3.42c-.1.06-.2.1-.31.14-2.47.7-5,1.51-7.53,2.41-.32.4-.82.59-1.32.44-.71-.21-1.14-1.02-.95-1.81l.24-1.03.7-.25c2.76-.99,5.52-1.88,8.22-2.64.71-.2,1.43.28,1.61,1.07.15.67-.13,1.35-.65,1.67Z"/>
        <path class="cls-53" d="m1410.73,132.01s3.18,42.95,31.6,43.73c28.42.79,57.26-6.32,66.53,4.48,0,0-20.35-81.13-93.31-62.42l-4.82,14.21Z"/>
        <path class="cls-54" d="m1330.41,144.4s-10.26,40.72-1.06,50.7c8.75,9.49,90.32,38.46,98.26,41.27.36.13.73-.08.87-.47h0c1.16-3.21.88-6.84-.75-9.79-7.89-14.22-31.78-56.46-42.66-66.64-13.14-12.29-54.66-15.06-54.66-15.06Z"/>
        <path class="cls-58" d="m1400.28,220.65c-.2.12-.45.16-.69.07-.45-.17-44.87-16.9-63.75-24.94-3.36-1.43-5.65-4.94-5.84-8.95-.36-7.72-.45-19.32,1.22-30.7.08-.53.52-.89,1-.8.47.09.79.59.72,1.12-1.73,11.8-1.5,24.04-1.2,30.28.15,3.24,2.01,6.08,4.73,7.24,18.84,8.02,63.24,24.74,63.68,24.91.45.17.7.72.55,1.23-.07.24-.22.43-.41.54Z"/>
        <path class="cls-19" d="m1363.31,53.27s17.89-37.27,30.7-37.29c12.19-.02,88.84,42.58,96.29,46.74.33.19.47.62.33,1.01h0c-1.16,3.21-3.61,5.61-6.61,6.46-14.5,4.09-57.9,15.9-72.04,14.75-17.08-1.38-48.67-31.67-48.67-31.67Z"/>
        <path class="cls-58" d="m1460.47,53.91c-.24.14-.53.16-.79.03-.43-.23-42.73-22.73-61.27-31.61-2.67-1.28-5.77-.68-7.89,1.53-4.09,4.26-11.85,12.88-17.93,22.71-.27.45-.81.55-1.21.25-.39-.3-.49-.91-.22-1.35,6.17-9.98,14.04-18.71,18.18-23.03,2.63-2.73,6.46-3.48,9.76-1.9,18.56,8.9,60.9,31.41,61.33,31.64.43.23.62.81.41,1.3-.08.19-.21.34-.37.44Z"/>
        <path class="cls-16" d="m1212.89,90.66c14.06,13.24,31.31,25.8,52.16,35.31,64.74,29.53,116.9,38.7,131.79,40.86,2.69.39,5.34-.93,6.94-3.39,12.6-19.37,20.53-40.87,23.81-64.51.62-4.45-1.07-8.91-4.31-11.56-14.09-11.52-56.32-43.81-118.42-71.67-20.74-9.31-40.79-13.69-59.01-15.14-21.96,31.9-29.66,68.87-32.95,90.09Z"/>
        <path class="cls-17" d="m1245.84.57c-40.25-3.19-71.61,7.97-81.93,12.26-2.02.84-2.95,3.42-2.02,5.59,4.74,11.07,20.28,43.3,51,72.23,3.29-21.22,10.99-58.19,32.95-90.09Z"/>
        <g>
          <path class="cls-62" d="m1293.85,32.45c16.79,7.59,24.5,30.1,17.22,50.27-7.28,20.17-26.8,30.37-43.59,22.77-16.79-7.59-24.5-30.1-17.22-50.27,7.28-20.17,26.8-30.37,43.59-22.77Z"/>
          <path class="cls-18" d="m1290.69,38.46c13.38,6.05,19.52,23.99,13.72,40.06-5.8,16.07-21.35,24.2-34.73,18.14-13.38-6.05-19.52-23.99-13.72-40.06,5.8-16.07,21.35-24.2,34.73-18.15Z"/>
          <path class="cls-60" d="m1268.32,85.91c-.3.18-.68.16-.96-.1-7.21-6.54-9.71-18.12-6.09-28.16.91-2.53,2.16-4.86,3.71-6.91.31-.41.86-.46,1.22-.12.37.35.41.96.1,1.37-1.43,1.9-2.58,4.05-3.43,6.39-3.34,9.25-1.05,19.91,5.57,25.92.37.34.43.95.13,1.37-.07.1-.16.18-.26.24Z"/>
        </g>
        <g>
          <path class="cls-62" d="m1350.47,72.48c11.09,5.02,16.18,19.89,11.37,33.21-4.81,13.33-17.7,20.06-28.79,15.04-11.09-5.02-16.18-19.89-11.37-33.21,4.81-13.33,17.7-20.06,28.79-15.04Z"/>
          <path class="cls-27" d="m1348.39,76.45c8.84,4,12.9,15.85,9.06,26.46-3.83,10.62-14.11,15.98-22.94,11.99s-12.9-15.85-9.06-26.46c3.83-10.62,14.11-15.98,22.94-11.99Z"/>
          <path class="cls-60" d="m1333.75,108.09c-.3.18-.68.16-.96-.1-4.86-4.41-6.55-12.22-4.11-18.99.62-1.7,1.46-3.27,2.5-4.65.3-.41.86-.46,1.22-.12.37.35.41.96.1,1.37-.93,1.23-1.67,2.62-2.22,4.13-2.16,5.98-.68,12.87,3.59,16.74.37.34.43.95.13,1.37-.07.1-.16.18-.26.24Z"/>
        </g>
      </g>
      <g>
        <path class="cls-63" d="m1176.86,1015.04c-.26-.49-.77-1.53-1.33-1.53h-60.87c-.46,0-.9.51-1.18.15s-.38-.48-.27-.93l25.47-99.16c.18-.69-.16-1.32-.81-1.63-.65-.31-1.42-.07-1.85.5l-108.57,145.6c-.34.45-.39.11-.14.62.25.51.77-.12,1.34-.12h55.84c.45,0,.87,1.16,1.16,1.51.28.35.4,1.29.31,1.73l-23.18,115.33c-.14.7.23,1.52.88,1.8.65.28,1.41.12,1.82-.47l111.27-161.5c.32-.46.35-1.39.09-1.88Z"/>
        <path class="cls-63" d="m1101.34,1253.29c-114.64,0-207.91-93.27-207.91-207.92,0-42.28,12.61-82.91,36.48-117.63l-11.85-11.96c-1.52-1.54-2.12-3.79-1.55-5.88.57-2.09,2.23-3.73,4.32-4.28l75.38-19.81c2.1-.55,4.34.06,5.87,1.6,1.52,1.54,2.12,3.8,1.54,5.89l-20.54,75.18c-.57,2.09-2.23,3.73-4.33,4.28-2.1.55-4.35-.06-5.88-1.6l-13.36-13.47c-16.34,26.33-24.96,56.59-24.96,87.69,0,91.92,74.74,166.7,166.61,166.7s166.51-74.78,166.51-166.7c0-43.79-16.99-85.19-47.85-116.59-30.79-31.33-71.82-49.11-115.52-50.07-3.17-.07-6.7-2.58-6.7-6.08v-29.06c0-1.87,1.4-3.22,2.33-4.11l.25-.24c1.35-1.32,3.81-1.77,5.13-1.74,54.62,1.02,105.86,23.12,144.29,62.23,38.48,39.16,59.67,90.88,59.67,145.64,0,114.64-93.27,207.92-207.91,207.92Zm-103.59-363.17c-.13,0-.27.02-.4.05l-75.38,19.81c-.54.14-.97.57-1.12,1.11-.15.54,0,1.13.4,1.53l14.49,14.63-1.08,1.54c-24.03,34.29-36.73,74.61-36.73,116.59,0,112.16,91.25,203.41,203.41,203.41s203.41-91.25,203.41-203.41c0-53.57-20.73-104.18-58.38-142.49-37.6-38.26-87.73-59.89-141.17-60.89h0c-.67-.05-1.65.27-1.91.48l-.26.25c-.28.27-.78.75-.94,1.02v28.9c0,.62,1.21,1.56,2.3,1.58,44.88.98,87.02,19.24,118.63,51.41,31.69,32.25,49.15,74.77,49.15,119.75,0,94.4-76.72,171.2-171.01,171.2s-171.11-76.8-171.11-171.2c0-32.91,9.4-64.89,27.18-92.5l1.52-2.36,17.33,17.47c.4.4.99.56,1.54.42.55-.14.98-.57,1.13-1.11l20.54-75.18c.15-.54,0-1.13-.4-1.53-.3-.3-.71-.47-1.12-.47Z"/>
      </g>
      <g>
        <path class="cls-23" d="m315.73,426.44c0,124.59,101,225.59,225.59,225.59s231.17-105.41,231.17-230-106.58-221.18-231.17-221.18-225.59,101-225.59,225.59Z"/>
        <g>
          <path class="cls-61" d="m754.78,371.59c.13,0,.27-.02.4-.05.83-.22,1.33-1.07,1.11-1.91-2.43-9.12-5.53-18.16-9.22-26.87-.34-.79-1.25-1.15-2.04-.83-.79.34-1.16,1.25-.83,2.04,3.63,8.58,6.69,17.48,9.07,26.46.19.7.82,1.16,1.5,1.16Z"/>
          <path class="cls-61" d="m720.3,301.09c.33,0,.66-.1.94-.31.69-.52.82-1.5.31-2.18-41.8-55.43-109.12-88.51-180.09-88.51-30.31,0-59.63,6.15-87.14,18.26-.79.35-1.14,1.27-.8,2.05.35.79,1.27,1.14,2.05.8,27.11-11.94,56-18,85.88-18,70,0,136.39,32.62,177.6,87.27.31.41.77.62,1.25.62Z"/>
        </g>
        <path class="cls-62" d="m346.42,426.44c0,107.85,87.43,195.27,195.27,195.27s200.1-91.25,200.1-199.09-92.26-191.45-200.1-191.45-195.27,87.43-195.27,195.27Z"/>
        <path class="cls-60" d="m346.42,426.44c0-107.85,87.43-195.27,195.27-195.27,58.4,0,112.22,24.52,149.3,64.13l-150.42,125.16-30.92,198.62c-92.6-15.29-163.22-95.71-163.22-192.64Z"/>
        <path class="cls-61" d="m373,412.86c0,97.33,80.54,176.23,179.89,176.23s184.34-82.35,184.34-179.68-84.99-172.78-184.34-172.78-179.89,78.9-179.89,176.23Z"/>
        <path class="cls-1" d="m691.89,416.31c.48,8.29,7.59,14.62,15.88,14.13,8.29-.48,14.62-7.59,14.13-15.88-.48-8.29-7.59-14.62-15.88-14.13-8.29.48-14.62,7.59-14.14,15.88Z"/>
        <path class="cls-1" d="m367.1,435.22c.48,8.29,7.59,14.62,15.88,14.13,8.29-.48,14.62-7.59,14.14-15.88-.48-8.29-7.59-14.62-15.88-14.13-8.29.48-14.62,7.59-14.14,15.88Z"/>
        <path class="cls-1" d="m571.03,570.13c-8.17,1.49-13.58,9.32-12.09,17.49,1.49,8.17,9.32,13.58,17.49,12.09,8.17-1.49,13.58-9.32,12.09-17.49-1.49-8.17-9.32-13.58-17.49-12.09Z"/>
        <path class="cls-1" d="m512.57,250.08c-8.17,1.49-13.58,9.32-12.09,17.49,1.49,8.17,9.32,13.58,17.49,12.09,8.17-1.49,13.58-9.32,12.09-17.49-1.49-8.17-9.32-13.58-17.49-12.09Z"/>
        <path class="cls-1" d="m464.15,578.72c-1.53,3.85-1.15,7.46.85,8.06,2,.6,4.86-2.04,6.39-5.9,1.53-3.85,1.15-7.46-.85-8.06-2-.6-4.86,2.04-6.38,5.9Z"/>
        <path class="cls-1" d="m594.81,275.15c-1.53,3.85-1.15,7.46.85,8.06,2,.6,4.86-2.04,6.39-5.9,1.53-3.85,1.15-7.46-.85-8.06-2-.6-4.86,2.04-6.39,5.9Z"/>
        <path class="cls-1" d="m395.92,521.01c-3.31,2.5-4.86,5.78-3.46,7.33,1.4,1.55,5.21.78,8.52-1.72,3.31-2.5,4.85-5.78,3.46-7.33-1.4-1.55-5.21-.78-8.52,1.72Z"/>
        <path class="cls-1" d="m665.22,329.41c-3.31,2.5-4.85,5.78-3.46,7.33,1.4,1.55,5.21.78,8.52-1.72,3.31-2.5,4.86-5.78,3.46-7.33-1.4-1.55-5.21-.78-8.52,1.72Z"/>
        <path class="cls-1" d="m387.36,349.13c-3.74-1.78-7.37-1.64-8.1.31-.73,1.95,1.71,4.98,5.46,6.77,3.74,1.78,7.37,1.64,8.1-.31.73-1.95-1.71-4.98-5.46-6.77Z"/>
        <path class="cls-1" d="m681.49,499.83c-3.74-1.78-7.37-1.64-8.1.31-.73,1.95,1.71,4.98,5.46,6.77,3.74,1.78,7.37,1.64,8.1-.31.73-1.95-1.71-4.98-5.46-6.77Z"/>
        <path class="cls-1" d="m449.5,284.92c-2.27-3.47-5.45-5.23-7.08-3.94-1.64,1.29-1.12,5.15,1.15,8.62,2.27,3.47,5.45,5.23,7.08,3.94,1.64-1.29,1.12-5.15-1.15-8.62Z"/>
        <path class="cls-1" d="m622.63,566.44c-2.27-3.47-5.45-5.23-7.08-3.94-1.64,1.29-1.12,5.15,1.15,8.62,2.27,3.47,5.45,5.23,7.08,3.94,1.64-1.29,1.12-5.15-1.15-8.62Z"/>
        <path class="cls-21" d="m547.78,420.39l120.77,60.23c2.34,1.17,5.08-.59,5-3.2l-.47-15.55c-.09-3.02,3.47-4.7,5.74-2.7l87.32,76.88c2.67,2.35.47,6.72-3.01,5.98l-112.47-24.01c-2.69-.57-3.67-3.91-1.71-5.84l13.17-12.98c1.63-1.6,1.28-4.32-.7-5.46l-116.91-67.26c-1.63-.94-2.21-3-1.31-4.65h0c.89-1.63,2.91-2.27,4.58-1.44Z"/>
        <path class="cls-59" d="m752.55,535.7c1.12,0,2.14-.63,2.65-1.68.61-1.26.3-2.71-.78-3.6l-19.11-15.8c-.66-.55-1.65-.45-2.19.21-.55.66-.45,1.64.21,2.19l19.11,15.8c-25.46-5.81-85.09-18.81-86.33-18.93-.84-.1-1.62.53-1.71,1.39-.09.85.52,1.6,1.36,1.7,1.79.29,47.49,10.22,86.14,18.65.22.05.44.07.66.07Z"/>
        <path class="cls-20" d="m535.18,414.46l.24-118.08c-.04-2.61-2.86-4.24-5.14-2.97l-13.59,7.57c-2.64,1.47-5.77-.92-5.04-3.86l28.1-112.9c.86-3.45,5.75-3.51,6.69-.08l30.41,110.91c.73,2.65-1.79,5.05-4.4,4.2l-17.59-5.72c-2.17-.71-4.42.85-4.52,3.14l-8.25,117.89c-.08,1.88-1.65,3.34-3.53,3.3h0c-1.86-.04-3.36-1.54-3.38-3.4Z"/>
        <path class="cls-59" d="m567.52,284.22c.19,0,.38-.03.57-.11.79-.31,1.19-1.2.89-1.99-.57-1.71-12.77-46.86-23.07-85.06-.37-1.35-1.51-2.24-2.95-2.21-1.4.04-2.54.98-2.84,2.35l-5.24,24.23c-.18.84.35,1.67,1.19,1.85.83.19,1.67-.35,1.85-1.19l5.24-24.23c6.55,25.28,22.44,84.2,22.9,85.36.24.61.83.99,1.45.99Z"/>
        <circle class="cls-26" cx="542.7" cy="420.79" r="16.06" transform="translate(-25.5 35.13) rotate(-3.62)"/>
      </g>
      <g>
        <path class="cls-63" d="m504.96,375.15h0c-.27,4.97-4.33,8.89-9.31,8.98l-326.49,5.95c-5.31.1-9.67-4.18-9.67-9.5v-.78c0-5.19,4.16-9.41,9.35-9.5l326.49-5.17c5.51-.09,9.93,4.51,9.63,10.01Z"/>
        <path class="cls-63" d="m468.2,417.56h0c-.27,4.97-4.33,8.89-9.31,8.98l-326.49,5.95c-5.31.1-9.67-4.18-9.67-9.5v-.78c0-5.19,4.16-9.41,9.35-9.5l326.49-5.17c5.51-.09,9.93,4.51,9.63,10.01Z"/>
        <path class="cls-63" d="m497.08,466.14h0c-.27,4.97-4.33,8.89-9.31,8.98l-326.49,5.95c-5.31.1-9.67-4.18-9.67-9.5v-.78c0-5.19,4.16-9.41,9.35-9.5l326.49-5.17c5.51-.09,9.93,4.51,9.63,10.01Z"/>
        <path class="cls-63" d="m458.34,510.43c0,6.84-5.54,12.38-12.38,12.38h-231.84c-6.84,0-12.38-5.54-12.38-12.38h0c0-6.84,5.54-12.38,12.38-12.38h231.84c6.84,0,12.38,5.54,12.38,12.38h0Z"/>
      </g>
      <g>
        <g>
          <path class="cls-22" d="m1838.31,1374.28s4.52,6.39,6.51,24.82c.19,1.72-1.1,3.25-2.83,3.34l-32.76,1.66c-1.32.07-2.32-1.18-1.97-2.45,1.63-5.78,6.73-19.92,19.28-28.5l11.76,1.12Z"/>
          <path class="cls-29" d="m1842.75,1364.25l-3.59,15.25c-.31,1.32-1.48,2.27-2.83,2.27-1.81,0-4.41-.14-6.88-.84-2.25-.64-3.66-2.86-3.4-5.18l1.68-14.92,15.02,3.43Z"/>
          <path class="cls-25" d="m1763.5,1375.41s6.61,9.53,6.95,22.92c.08,3.15-2.47,5.76-5.63,5.87l-50.91,1.78c-2.38.08-3.46-2.95-1.56-4.38,9.4-7.1,27.89-20.4,41.41-25.84l9.73-.34Z"/>
          <path class="cls-28" d="m1764.76,1359.15l-1.3,19.57c-.15,2.19-2.03,3.91-4.22,3.73-1.33-.11-2.93-.45-4.69-1.25-1.68-.75-2.71-2.48-2.64-4.32l.89-23.62,11.97,5.89Z"/>
          <path class="cls-24" d="m1866.12,1101s12.31,13.6,13.25,28.39c.94,14.79-35.5,249.39-35.5,249.39,0,0-13.93.73-20.49-4.33,0,0,8.89-153.91,6.52-189.98,0,0-51.19,154.7-63.65,182.29,0,0-13.35.12-17.32-2.87,0,0,31.89-204.42,46.97-239.71l70.22-23.18Z"/>
          <path class="cls-31" d="m1831.02,1179.74c-.2,0-.41-.04-.61-.11-.87-.34-1.3-1.31-.97-2.18l8.32-21.62c.15-.4.45-.72.83-.91l13.45-6.63c.83-.41,1.85-.07,2.26.77s.07,1.85-.77,2.26l-12.86,6.34-8.08,21.01c-.26.67-.9,1.08-1.58,1.08Z"/>
          <path class="cls-15" d="m1746.56,949.59c58.09,1.71,71.79,15.32,71.79,15.32l-32.58,40.55s-56.43-7.49-93.43-43.3c8.5-7.31,14.79-15.74,18.96-22.39,9.96,5.52,21.71,9.42,35.26,9.82Z"/>
          <path class="cls-32" d="m1665.95,854.94c.29-1.84,2.84-2.06,3.44-.3l5.58,16.5c1.08,3.19,1.15,6.63.21,9.86l-3.6,8.83c-1.27,4.36-.62,9.05,1.8,12.89,5.8,9.2,18.43,26.22,37.93,37.03-4.17,6.65-10.46,15.08-18.96,22.39-13.58-13.14-24.54-30.08-29.14-51.87-3.22-1.4-5.1-4.8-4.57-8.27l7.32-47.08Z"/>
          <path class="cls-30" d="m1724.76,972.77c22.72-19.55,62.43-25.06,85.23-26.59,9.99-.67,19.02,5.86,21.44,15.58,7.01,28.16,26.43,101.57,30.36,114.26,3.23,10.41,6.68,20.6,8.88,26.98,1.32,3.81-.68,7.97-4.48,9.3-19.82,6.94-54.8,13.38-68.97,15.83-3.12.54-5.86-2.06-5.51-5.21.3-2.66-.13-5.36-1.24-7.8l-42.18-92.41c-36.42,32.24-65.14,32.33-86.03,22.02,4.94-10.9,8.61-21.97,11.04-33.2,32.8-1.88,51.46-38.76,51.46-38.76Z"/>
          <path class="cls-14" d="m1620.8,999.51l6.68-7.09c17.34,15.03,32.71,19.86,45.82,19.11-2.43,11.23-6.1,22.3-11.04,33.2-27.52-13.58-41.46-45.22-41.46-45.22Z"/>
          <path class="cls-5" d="m1624.88,1000.11l-32.86-2.41-28.22-20.22c4.63-2.22,28.45,6.07,28.45,6.07,0,0,25.99-.98,32.91-.21,5.75.64,3.99,8.81,3.23,11.56-.16.56-.27.9-.27.9l-3.25,4.32Z"/>
          <path class="cls-7" d="m1783.77,902.61l12.51,44.06s-21.38,11.49-37.19,8.39l-4.34-38.84,29.02-13.61Z"/>
          <g>
            <path class="cls-8" d="m1757.86,870.61c-.46.52-17.47,42.83-17.47,42.83l24.37,9.2,22.09-37.71s-21.31-22.95-28.98-14.32Z"/>
            <path class="cls-6" d="m1776.71,889.9l-10.07,20.76c-.13.27-.29.51-.49.73-1.2,1.36-5.68,5.71-9.86.86-3.79-4.4-7.32-8.36-10.87-9.41-1.59-.47-3.28.35-3.9,1.89-1.54,3.85-4.87,12.57-6.59,20.6-.35,1.63.62,3.24,2.21,3.74,4.79,1.48,14.99,4.33,23.74,4.69,1.18.05,2.3-.54,2.91-1.55,2.98-4.95,12.09-19.97,15.28-23.77,2.99-3.56,9.25-2.75,11.85-2.22.85.17,1.73,0,2.45-.51,2.53-1.76,7.48-6.41,2.02-13.26-1.14-1.43-.87-3.51.59-4.61,2.92-2.19,6.25-6.28,2.46-12.24-3.85-6.06-9.86-5.84-13.63-4.93-1.52.37-3.05-.43-3.7-1.86-.37-.81-1.09-1.48-2.48-1.52-1.86-.05-3.24-1.77-3-3.61.47-3.55-.3-8.19-6.26-10.81-10.57-4.65-18.6,5.17-20.17,12.99-1.57,7.82,10.18,12.21,17.35,12.48,5.45.2,8.86,6.02,10.18,8.79.42.88.41,1.9-.02,2.77Z"/>
            <path class="cls-4" d="m1775.31,915.96s3.32-13.52,9.1-13.54c5.78-.03,10.81,5.29,4.27,12.34-8.14,8.78-13.36,1.2-13.36,1.2Z"/>
          </g>
        </g>
        <g>
          <path class="cls-11" d="m1405.16,909.23l71.36,35.15c5.55,2.73,9.4,8.02,10.29,14.15l11.5,78.71c2.25,15.41,21.2,21.56,32.07,10.39l55.48-57c4.32-4.43,10.54-6.46,16.63-5.42l78.41,13.39c15.36,2.62,27.05-13.5,19.79-27.29l-37.07-70.38c-2.88-5.47-2.89-12.01-.01-17.49l36.96-70.44c7.24-13.79-4.48-29.9-19.83-27.26l-78.39,13.51c-6.1,1.05-12.32-.97-16.64-5.39l-55.57-56.92c-10.88-11.15-29.82-4.98-32.05,10.44l-11.38,78.73c-.89,6.12-4.73,11.42-10.27,14.16l-71.31,35.26c-13.96,6.9-13.95,26.82.03,33.71Z"/>
          <path class="cls-59" d="m1593.19,967.28c4.1-.69,8.26-.69,12.36.02l51.21,8.74c5.38.92,10.72-1.26,13.92-5.68,3.21-4.42,3.61-10.16,1.07-14.99l-24.21-45.97c-5.67-10.77-5.68-23.63-.03-34.41l24.14-46c2.54-4.83,2.12-10.58-1.09-14.99-3.22-4.41-8.55-6.58-13.93-5.65l-26.16,4.51.69,3.98,26.16-4.51c3.92-.68,7.64.87,9.98,4.05,2.33,3.21,2.63,7.22.78,10.74l-24.14,46c-6.27,11.96-6.26,26.23.03,38.17l24.21,45.97c1.85,3.51,1.56,7.53-.77,10.74-2.33,3.21-6.06,4.73-9.97,4.06l-51.21-8.74c-4.55-.78-9.16-.78-13.71-.02l.67,3.98Z"/>
          <path class="cls-59" d="m1515.55,1014.49c1.67,1.96,3.89,3.47,6.46,4.3,5.2,1.68,10.79.3,14.59-3.61l27.72-28.48-2.9-2.82-27.72,28.48c-2.77,2.85-6.67,3.81-10.45,2.59-3.78-1.22-6.38-4.3-6.95-8.23l-7.51-51.4c-1.92-13.2-10.48-24.97-22.46-30.86l-46.6-22.96c-3.56-1.76-5.68-5.18-5.69-9.14,0-3.97,2.12-7.39,5.68-9.15l46.57-23.03c12.1-5.99,20.48-17.54,22.4-30.89l7.44-51.42c.57-3.93,3.16-7.01,6.93-8.24,3.78-1.23,7.68-.27,10.46,2.57l36.29,37.18c3.75,3.84,8.16,6.87,13.09,9l1.6-3.71c-4.45-1.92-8.42-4.65-11.8-8.12l-36.29-37.18c-3.81-3.91-9.41-5.28-14.6-3.59-5.19,1.69-8.9,6.1-9.68,11.5l-7.44,51.42c-1.74,12.04-9.29,22.46-20.2,27.85l-46.57,23.03c-4.89,2.42-7.93,7.31-7.93,12.77,0,5.46,3.05,10.35,7.95,12.76l46.6,22.95c10.8,5.32,18.51,15.92,20.24,27.83l7.51,51.4c.4,2.72,1.54,5.19,3.24,7.18Z"/>
        </g>
        <g>
          <path class="cls-13" d="m1716.46,680.83l49.88-11.21c3.88-.87,7.94.22,10.86,2.92l37.51,34.73c7.35,6.8,19.3,2.23,20.23-7.74l4.75-50.9c.37-3.96,2.66-7.48,6.13-9.42l44.63-24.94c8.74-4.88,8.08-17.67-1.11-21.64l-46.94-20.25c-3.65-1.57-6.29-4.85-7.06-8.75l-9.93-50.15c-1.94-9.82-14.31-13.15-20.92-5.63l-33.76,38.39c-2.63,2.99-6.55,4.49-10.5,4.02l-50.76-6.05c-9.94-1.18-16.93,9.54-11.82,18.15l26.07,43.97c2.03,3.42,2.24,7.62.57,11.23l-21.44,46.41c-4.2,9.09,3.85,19.05,13.61,16.85Z"/>
          <path class="cls-59" d="m1833.94,634c1.77-2,3.86-3.68,6.19-4.98l29.14-16.29c3.06-1.71,4.85-4.95,4.67-8.46-.18-3.5-2.29-6.54-5.51-7.93l-30.66-13.23c-7.18-3.1-12.38-9.53-13.9-17.2l-6.49-32.75c-.68-3.44-3.21-6.14-6.6-7.06-3.39-.91-6.93.16-9.25,2.79l-11.27,12.81,1.95,1.71,11.27-12.81c1.69-1.92,4.17-2.65,6.63-2,2.46.66,4.23,2.55,4.73,5.06l6.48,32.75c1.69,8.51,7.45,15.65,15.42,19.08l30.66,13.23c2.34,1.01,3.82,3.13,3.95,5.68.13,2.55-1.12,4.81-3.35,6.06l-29.14,16.29c-2.59,1.45-4.9,3.31-6.87,5.52l1.94,1.72Z"/>
          <path class="cls-59" d="m1814.15,688.95c1.63.31,3.34.17,4.97-.45,3.28-1.25,5.52-4.2,5.84-7.7l2.38-25.43-2.59-.24-2.38,25.43c-.24,2.54-1.8,4.6-4.18,5.51-2.38.91-4.92.42-6.8-1.31l-24.5-22.68c-6.29-5.83-15.32-8.26-23.69-6.38l-32.57,7.32c-2.49.56-4.93-.3-6.54-2.28-1.6-1.99-1.92-4.55-.85-6.87l14-30.31c3.64-7.88,3.17-17.03-1.26-24.49l-17.03-28.72c-1.3-2.2-1.25-4.78.14-6.92,1.39-2.14,3.74-3.23,6.27-2.93l33.16,3.95c3.43.41,6.85.15,10.18-.78l-.7-2.5c-3,.83-6.09,1.07-9.18.7l-33.15-3.95c-3.48-.42-6.84,1.15-8.75,4.09-1.91,2.94-1.99,6.64-.2,9.66l17.03,28.72c3.99,6.73,4.41,14.98,1.13,22.08l-14,30.31c-1.47,3.18-1.02,6.86,1.19,9.59,2.21,2.73,5.7,3.95,9.13,3.18l32.57-7.32c7.55-1.7,15.69.49,21.35,5.75l24.5,22.68c1.3,1.2,2.86,1.98,4.52,2.29Z"/>
        </g>
        <g>
          <path class="cls-9" d="m1739.08,389.98l24.59-22.47c1.91-1.75,4.56-2.44,7.09-1.86l32.45,7.52c6.35,1.47,11.64-4.98,8.94-10.92l-13.77-30.33c-1.07-2.36-.91-5.09.42-7.31l17.18-28.54c3.36-5.59-1.14-12.61-7.62-11.88l-33.1,3.72c-2.57.29-5.13-.71-6.82-2.66l-21.83-25.16c-4.27-4.93-12.34-2.81-13.65,3.58l-6.69,32.63c-.52,2.54-2.26,4.66-4.64,5.67l-30.67,12.99c-6.01,2.54-6.49,10.87-.82,14.09l28.97,16.45c2.25,1.28,3.73,3.58,3.95,6.17l2.87,33.18c.56,6.5,8.33,9.53,13.15,5.13Z"/>
          <path class="cls-59" d="m1790.39,325.51c.36-1.71.99-3.33,1.89-4.82l11.22-18.64c1.18-1.96,1.15-4.37-.09-6.3-1.23-1.92-3.41-2.96-5.68-2.7l-21.62,2.43c-5.06.57-10.08-1.39-13.42-5.24l-14.26-16.43c-1.5-1.73-3.8-2.44-6.01-1.86-2.21.58-3.87,2.33-4.33,4.57l-2.23,10.89,1.66.34,2.23-10.89c.33-1.63,1.5-2.85,3.1-3.27,1.61-.42,3.22.08,4.31,1.33l14.26,16.43c3.71,4.27,9.27,6.44,14.89,5.81l21.62-2.43c1.65-.19,3.17.54,4.07,1.94.9,1.4.92,3.08.06,4.51l-11.22,18.64c-1,1.66-1.7,3.45-2.1,5.34l1.66.35Z"/>
          <path class="cls-59" d="m1796.96,362.99c1.02-.35,1.95-.99,2.66-1.86,1.45-1.77,1.76-4.16.82-6.24l-6.88-15.15-1.54.7,6.88,15.15c.69,1.51.47,3.18-.58,4.47-1.05,1.29-2.65,1.83-4.27,1.45l-21.19-4.91c-5.44-1.26-11.33.28-15.46,4.05l-16.06,14.67c-1.23,1.12-2.89,1.43-4.43.83-1.55-.6-2.56-1.95-2.7-3.61l-1.88-21.67c-.49-5.63-3.71-10.66-8.63-13.45l-18.92-10.74c-1.45-.82-2.25-2.3-2.16-3.96.1-1.66,1.07-3.04,2.6-3.68l20.03-8.48c2.07-.88,3.92-2.13,5.51-3.73l-1.2-1.19c-1.43,1.44-3.1,2.57-4.97,3.36l-20.03,8.48c-2.1.89-3.5,2.86-3.63,5.14-.13,2.28,1.02,4.4,3.01,5.53l18.92,10.74c4.43,2.52,7.34,7.05,7.78,12.12l1.88,21.67c.2,2.28,1.64,4.21,3.77,5.04,2.13.83,4.5.39,6.19-1.15l16.06-14.67c3.72-3.4,9.03-4.79,13.94-3.65l21.19,4.91c1.12.26,2.26.19,3.29-.17Z"/>
        </g>
      </g>
      <g>
        <g>
          <g>
            <path class="cls-61" d="m718.33,1233.04c-.66,0-1.31-.28-1.75-.83-.78-.97-.63-2.38.33-3.17,2.3-1.86,4.58-3.79,6.8-5.75.93-.82,2.35-.73,3.18.2.82.93.73,2.35-.2,3.18-2.26,2-4.6,3.97-6.94,5.87-.42.34-.92.5-1.42.5Z"/>
            <path class="cls-61" d="m584.32,1281.15c-1.23,0-2.24-1-2.25-2.23,0-1.24.99-2.26,2.23-2.27,6.05-.05,12.18-.37,18.2-.94,1.24-.11,2.34.79,2.45,2.03.12,1.24-.79,2.34-2.03,2.45-6.15.58-12.4.9-18.59.96h-.02Zm-29.86-1.84c-.1,0-.2,0-.3-.02-6.12-.81-12.29-1.89-18.33-3.22-1.21-.27-1.98-1.47-1.71-2.68.27-1.21,1.47-1.98,2.68-1.71,5.92,1.3,11.95,2.36,17.95,3.15,1.23.16,2.1,1.29,1.94,2.53-.15,1.13-1.12,1.96-2.23,1.96Zm77.76-4c-1.02,0-1.94-.7-2.19-1.73-.29-1.21.46-2.42,1.67-2.71,5.87-1.4,11.77-3.07,17.54-4.98,1.18-.39,2.45.25,2.84,1.43.39,1.18-.25,2.45-1.43,2.84-5.88,1.94-11.91,3.65-17.9,5.08-.18.04-.35.06-.52.06Zm-124.6-7.6c-.26,0-.52-.05-.78-.14-5.79-2.14-11.56-4.56-17.16-7.19-1.13-.53-1.61-1.87-1.08-2.99.53-1.13,1.87-1.61,2.99-1.08,5.48,2.58,11.13,4.95,16.81,7.05,1.17.43,1.76,1.73,1.33,2.89-.34.91-1.2,1.47-2.11,1.47Zm170.03-8.71c-.83,0-1.63-.46-2.02-1.26-.55-1.12-.09-2.46,1.03-3.01,5.45-2.67,10.83-5.6,16.01-8.71,1.06-.64,2.45-.29,3.09.77.64,1.07.29,2.45-.77,3.09-5.29,3.17-10.79,6.17-16.35,8.89-.32.16-.66.23-.99.23Zm-213.14-12.97c-.42,0-.85-.12-1.23-.36-5.18-3.37-10.27-7.01-15.14-10.81-.98-.76-1.15-2.18-.39-3.16.76-.98,2.18-1.16,3.16-.39,4.77,3.72,9.75,7.28,14.83,10.59,1.04.68,1.34,2.07.66,3.11-.43.66-1.15,1.02-1.89,1.02Zm-37.22-30.69c-.59,0-1.18-.23-1.62-.69-4.3-4.44-8.45-9.12-12.35-13.91-.78-.97-.64-2.38.32-3.17.96-.79,2.38-.64,3.17.32,3.81,4.69,7.88,9.27,12.09,13.62.86.89.84,2.32-.05,3.18-.44.42-1,.63-1.57.63Zm-29.43-38.22c-.76,0-1.51-.39-1.93-1.09-3.19-5.28-6.2-10.77-8.93-16.32-.55-1.12-.09-2.47,1.02-3.01,1.12-.55,2.46-.09,3.01,1.02,2.68,5.44,5.62,10.81,8.75,15.98.64,1.06.3,2.45-.76,3.09-.36.22-.77.32-1.16.32Zm-20.2-43.82c-.94,0-1.82-.6-2.14-1.54-1.96-5.88-3.68-11.9-5.13-17.89-.29-1.21.45-2.42,1.66-2.72,1.21-.29,2.43.45,2.72,1.66,1.41,5.87,3.1,11.76,5.02,17.52.39,1.18-.25,2.45-1.42,2.85-.24.08-.48.12-.71.12Zm-10.04-47.21c-1.15,0-2.12-.87-2.24-2.03-.6-6.16-.94-12.41-1.01-18.58-.01-1.24.98-2.26,2.23-2.28,1.32,0,2.26.98,2.28,2.23.07,6.05.4,12.17.98,18.2.12,1.24-.78,2.34-2.02,2.46-.07,0-.15.01-.22.01Z"/>
            <path class="cls-61" d="m368.39,1037.73c-.1,0-.19,0-.29-.02-1.23-.16-2.1-1.29-1.94-2.52.39-2.98.84-6.01,1.36-8.99.21-1.23,1.36-2.06,2.6-1.84,1.23.21,2.05,1.37,1.84,2.6-.5,2.92-.95,5.88-1.33,8.8-.15,1.13-1.12,1.96-2.23,1.96Z"/>
          </g>
          <g>
            <path class="cls-61" d="m453.93,891.88c-.69,0-1.37-.32-1.81-.91-.74-1-.53-2.41.47-3.15,2.41-1.79,4.91-3.56,7.42-5.26,1.03-.7,2.43-.43,3.13.6.7,1.03.43,2.43-.6,3.13-2.46,1.67-4.9,3.4-7.27,5.15-.4.3-.87.44-1.34.44Z"/>
            <path class="cls-61" d="m798.18,1073.36s-.06,0-.09,0c-1.24-.05-2.21-1.09-2.16-2.33.1-2.67.15-5.37.15-8.03,0-3.28-.08-6.61-.23-9.9-.06-1.24.9-2.3,2.14-2.35,1.25-.03,2.3.9,2.35,2.14.16,3.36.24,6.76.24,10.11,0,2.72-.05,5.47-.15,8.2-.05,1.21-1.04,2.17-2.25,2.17Zm-3.48-47.36c-1.06,0-2.01-.76-2.21-1.84-1.09-5.85-2.44-11.73-4.02-17.48-.33-1.2.38-2.44,1.57-2.77,1.2-.33,2.44.37,2.77,1.57,1.61,5.87,2.99,11.87,4.11,17.85.23,1.22-.58,2.4-1.8,2.62-.14.03-.28.04-.41.04Zm-13.76-45.45c-.87,0-1.71-.51-2.07-1.37-2.34-5.49-4.93-10.93-7.71-16.18-.58-1.1-.16-2.46.94-3.04,1.1-.58,2.46-.16,3.04.94,2.83,5.36,5.48,10.92,7.87,16.52.49,1.14-.05,2.47-1.19,2.95-.29.12-.59.18-.88.18Zm-23.28-41.37c-.7,0-1.39-.33-1.83-.94-3.48-4.84-7.21-9.58-11.07-14.1-.81-.95-.7-2.37.25-3.17.95-.81,2.37-.7,3.17.25,3.95,4.61,7.75,9.46,11.31,14.4.73,1.01.5,2.42-.51,3.14-.4.29-.86.42-1.31.42Zm-31.81-35.24c-.53,0-1.06-.19-1.49-.57-4.45-3.95-9.12-7.76-13.9-11.32-1-.74-1.2-2.16-.46-3.15.74-1,2.16-1.2,3.15-.46,4.87,3.64,9.65,7.53,14.19,11.56.93.83,1.02,2.25.19,3.18-.45.5-1.06.76-1.68.76Zm-38.76-27.41c-.37,0-.74-.09-1.09-.28-5.21-2.89-10.61-5.58-16.04-8.02-1.13-.51-1.64-1.84-1.13-2.98.51-1.14,1.84-1.65,2.98-1.13,5.54,2.49,11.05,5.24,16.37,8.19,1.09.6,1.48,1.97.88,3.06-.41.74-1.18,1.16-1.97,1.16Zm-200.37-4.67c-.83,0-1.63-.46-2.02-1.25-.55-1.12-.09-2.47,1.02-3.01,5.43-2.68,11.07-5.18,16.74-7.41,1.16-.45,2.47.11,2.92,1.27.46,1.16-.11,2.46-1.27,2.92-5.56,2.19-11.07,4.63-16.4,7.26-.32.16-.66.23-.99.23Zm156.57-13.65c-.21,0-.42-.03-.64-.09-5.72-1.68-11.57-3.15-17.4-4.34-1.22-.25-2-1.44-1.75-2.66.25-1.22,1.43-2,2.66-1.75,5.95,1.22,11.93,2.71,17.77,4.43,1.19.35,1.87,1.6,1.52,2.8-.29.98-1.19,1.62-2.16,1.62Zm-111.96-2.62c-1.01,0-1.93-.69-2.18-1.71-.3-1.21.44-2.43,1.65-2.72,5.91-1.45,11.95-2.66,17.95-3.61,1.24-.2,2.38.65,2.57,1.87.19,1.23-.65,2.38-1.87,2.57-5.88.93-11.79,2.12-17.58,3.53-.18.04-.36.06-.54.06Zm65.21-5.71s-.1,0-.15,0c-5.95-.39-11.95-.54-17.93-.42-1.21-.02-2.27-.97-2.29-2.21-.02-1.24.97-2.27,2.21-2.29,6.11-.11,12.24.03,18.31.43,1.24.08,2.18,1.15,2.1,2.39-.08,1.19-1.07,2.1-2.24,2.1Z"/>
            <path class="cls-61" d="m793.28,1111.57c-.16,0-.32-.02-.49-.05-1.21-.27-1.98-1.47-1.71-2.68.64-2.89,1.22-5.83,1.73-8.73.22-1.22,1.38-2.03,2.61-1.82,1.22.22,2.04,1.38,1.82,2.61-.53,2.97-1.12,5.97-1.77,8.92-.23,1.05-1.16,1.77-2.2,1.77Z"/>
          </g>
          <g>
            <path class="cls-61" d="m738.63,1118.72c.48-1,.28-2.19-.51-2.96l-22.38-22.2c3.2-14.37,4.14-29.35,2.53-44.42l24.73-19.52c.87-.68,1.2-1.84.84-2.89l-12.47-35.7c-.36-1.04-1.35-1.74-2.46-1.74l-31.5.13c-8.13-12.79-18.19-23.93-29.64-33.18l3.69-31.31c.13-1.1-.45-2.16-1.45-2.64l-34.06-16.42c-1-.48-2.19-.28-2.96.51l-22.2,22.38c-14.37-3.2-29.35-4.14-44.42-2.53l-19.52-24.73c-.68-.87-1.84-1.2-2.89-.84l-35.7,12.47c-1.04.36-1.74,1.35-1.74,2.46l.13,31.5c-12.79,8.13-23.93,18.19-33.18,29.64l-31.31-3.69c-1.1-.13-2.16.45-2.64,1.45l-16.42,34.06c-.48,1-.28,2.19.51,2.96l22.38,22.2c-3.2,14.37-4.14,29.35-2.53,44.42l-24.73,19.52c-.87.68-1.2,1.84-.84,2.89l12.47,35.7c.36,1.04,1.35,1.74,2.46,1.74l31.5-.13c8.13,12.79,18.19,23.93,29.64,33.18l-3.69,31.31c-.13,1.1.45,2.16,1.45,2.64l34.06,16.42c1,.48,2.19.28,2.96-.51l22.2-22.38c14.37,3.2,29.35,4.14,44.42,2.53l19.52,24.73c.68.87,1.84,1.2,2.89.84l35.7-12.47c1.04-.36,1.74-1.35,1.74-2.46l-.13-31.5c12.79-8.13,23.93-18.19,33.18-29.64l31.31,3.69c1.1.13,2.16-.45,2.64-1.45l16.42-34.06Z"/>
            <path class="cls-60" d="m580.94,1100.6c-2.49,0-5-.25-7.49-.76-9.67-1.98-17.99-7.61-23.43-15.85-5.44-8.24-7.34-18.1-5.36-27.77,1.98-9.67,7.61-17.99,15.85-23.43,8.24-5.44,18.1-7.34,27.77-5.36,9.67,1.98,17.99,7.61,23.43,15.85,5.44,8.24,7.34,18.1,5.36,27.77-1.98,9.67-7.61,17.99-15.85,23.43-6.11,4.03-13.12,6.12-20.28,6.12Zm-.14-67.17c-5.85,0-11.58,1.71-16.57,5-6.73,4.44-11.33,11.24-12.95,19.14-1.62,7.9-.06,15.96,4.38,22.7,4.44,6.73,11.24,11.33,19.14,12.95,7.9,1.61,15.96.06,22.7-4.38,6.73-4.44,11.33-11.24,12.95-19.14,1.62-7.9.06-15.96-4.38-22.7-4.44-6.73-11.24-11.33-19.14-12.95-2.04-.42-4.09-.62-6.12-.62Z"/>
            <path class="cls-60" d="m580.04,1158.01c-14.04,0-28.01-3.16-41.02-9.44-22.77-10.98-39.89-30.16-48.23-54.02-3.6-10.29-5.3-20.8-5.3-31.13,0-39.11,24.46-75.79,63.42-89.4,23.86-8.33,49.54-6.88,72.3,4.1,22.77,10.98,39.89,30.16,48.23,54.02,2.23,6.37,3.77,12.97,4.6,19.61l-6.7.83c-.77-6.17-2.2-12.29-4.27-18.22h0c-6.94-19.85-20.43-36.22-38.36-46.74-2.08-1.22-4.22-2.36-6.42-3.42-21.14-10.19-44.98-11.55-67.14-3.81-36.18,12.64-58.89,46.7-58.9,83.02,0,9.6,1.58,19.35,4.92,28.91,7.74,22.16,23.65,39.97,44.79,50.17,21.14,10.2,44.99,11.55,67.14,3.81,15.04-5.25,28.35-14.46,38.49-26.63l5.19,4.32c-10.92,13.11-25.25,23.03-41.45,28.69-10.22,3.57-20.77,5.34-31.28,5.34Z"/>
          </g>
        </g>
        <path class="cls-61" d="m416.7,980.44l-13.49-11.41c1.15-8.17,1.01-16.58-.56-24.92l12.95-12c.45-.42.59-1.08.34-1.65l-8.55-19.38c-.25-.57-.83-.91-1.45-.86l-17.59,1.47c-5.11-6.78-11.22-12.56-18.03-17.22l.67-17.65c.02-.62-.35-1.18-.93-1.41l-19.75-7.66c-.58-.22-1.23-.06-1.63.42l-11.41,13.49c-8.17-1.15-16.58-1.01-24.92.56l-12-12.95c-.42-.45-1.08-.59-1.65-.34l-19.39,8.55c-.57.25-.91.83-.86,1.45l1.47,17.59c-6.78,5.11-12.56,11.22-17.22,18.03l-17.65-.67c-.62-.02-1.18.35-1.41.93l-7.66,19.75c-.22.58-.06,1.23.42,1.63l13.49,11.41c-1.15,8.17-1.01,16.58.56,24.92l-12.95,12c-.45.42-.59,1.08-.34,1.65l8.55,19.39c.25.57.83.91,1.45.86l17.59-1.47c5.11,6.78,11.22,12.56,18.03,17.22l-.67,17.65c-.02.62.35,1.18.93,1.41l19.75,7.66c.58.22,1.23.06,1.63-.42l11.41-13.49c8.17,1.15,16.58,1.01,24.92-.56l12,12.95c.42.45,1.08.59,1.65.34l19.38-8.55c.57-.25.91-.83.86-1.45l-1.47-17.59c6.78-5.11,12.56-11.22,17.22-18.03l17.65.67c.62.02,1.18-.35,1.41-.93l7.66-19.75c.22-.58.06-1.23-.42-1.63Z"/>
        <path class="cls-60" d="m326.6,980.5c-.92,0-1.84-.06-2.76-.17-5.88-.73-11.13-3.7-14.78-8.37-3.65-4.67-5.25-10.49-4.53-16.37.73-5.88,3.7-11.13,8.37-14.78,4.67-3.65,10.49-5.26,16.37-4.53,5.88.72,11.13,3.7,14.78,8.37h0c7.53,9.65,5.8,23.62-3.84,31.14-3.94,3.07-8.69,4.7-13.61,4.7Zm-.06-37.62c-3.32,0-6.67,1.07-9.48,3.26-3.25,2.54-5.32,6.19-5.82,10.28-.51,4.09.61,8.14,3.15,11.39,2.54,3.25,6.19,5.32,10.28,5.82,4.09.51,8.13-.61,11.39-3.15,6.71-5.24,7.91-14.96,2.67-21.67h0c-3.04-3.89-7.59-5.93-12.18-5.93Z"/>
        <g>
          <path class="cls-61" d="m418.14,1027.76c-.46,0-.93-.14-1.33-.44-1-.74-1.22-2.14-.48-3.15,1.74-2.37,3.4-4.83,4.93-7.31.65-1.06,2.04-1.39,3.1-.73,1.06.65,1.39,2.04.73,3.1-1.6,2.59-3.33,5.15-5.13,7.61-.44.6-1.12.92-1.82.92Z"/>
          <path class="cls-61" d="m339.9,1073.37c-1.13,0-2.1-.84-2.23-1.99-.15-1.23.74-2.35,1.97-2.5,5.75-.68,11.48-1.81,17.04-3.37,1.2-.34,2.44.36,2.78,1.56s-.36,2.44-1.56,2.78c-5.79,1.62-11.75,2.8-17.73,3.51-.09.01-.18.02-.27.02Zm-28.74-.27c-.1,0-.2,0-.31-.02-5.96-.81-11.91-2.1-17.66-3.83-1.19-.36-1.87-1.61-1.51-2.8s1.62-1.87,2.8-1.51c5.53,1.66,11.24,2.9,16.98,3.68,1.23.17,2.09,1.3,1.93,2.53-.15,1.13-1.12,1.95-2.23,1.95Zm72.6-14.4c-.77,0-1.53-.4-1.95-1.11-.63-1.07-.27-2.45.81-3.08,4.29-2.51,8.47-5.34,12.41-8.42.63-.49,1.25-.98,1.86-1.48.97-.78,2.38-.64,3.17.32.79.96.64,2.38-.32,3.17-.64.52-1.29,1.04-1.94,1.55-4.1,3.2-8.45,6.15-12.91,8.76-.36.21-.75.31-1.13.31Zm-116.19-1.02c-.4,0-.8-.11-1.17-.33-5.14-3.12-10.07-6.67-14.66-10.56-.95-.8-1.07-2.22-.26-3.17.81-.95,2.22-1.07,3.17-.26,4.41,3.73,9.15,7.15,14.09,10.15,1.06.65,1.4,2.03.76,3.09-.42.7-1.17,1.08-1.93,1.08Zm-33.78-31.56c-.71,0-1.4-.33-1.84-.95-3.49-4.93-6.6-10.15-9.26-15.52-.55-1.11-.1-2.46,1.02-3.02,1.11-.55,2.46-.1,3.02,1.02,2.56,5.16,5.55,10.18,8.91,14.92.72,1.01.48,2.42-.54,3.14-.39.28-.85.41-1.3.41Z"/>
          <path class="cls-61" d="m215.29,983.6c-1.05,0-1.98-.73-2.2-1.8-.62-2.99-1.12-6.03-1.5-9.05-.15-1.23.72-2.36,1.96-2.51,1.23-.16,2.36.72,2.51,1.96.36,2.9.85,5.83,1.44,8.7.25,1.22-.53,2.41-1.75,2.66-.15.03-.31.05-.46.05Z"/>
        </g>
        <g>
          <path class="cls-61" d="m235.29,892.88c-.47,0-.94-.14-1.34-.44-1-.74-1.21-2.15-.46-3.15,1.81-2.44,3.75-4.85,5.76-7.15.82-.94,2.24-1.03,3.18-.21.94.82,1.03,2.24.21,3.18-1.93,2.21-3.8,4.52-5.54,6.87-.44.59-1.12.91-1.81.91Z"/>
          <path class="cls-61" d="m430.8,915.45c-.87,0-1.7-.51-2.07-1.36-2.26-5.21-4.94-10.29-7.98-15.1-.66-1.05-.35-2.44.7-3.1,1.05-.66,2.44-.35,3.1.7,3.16,5.01,5.96,10.3,8.31,15.72.49,1.14-.03,2.47-1.17,2.96-.29.13-.59.19-.89.19Zm-26.07-37.28c-.56,0-1.12-.21-1.55-.62-4.12-3.92-8.57-7.55-13.24-10.78-1.02-.71-1.28-2.11-.57-3.13.71-1.02,2.11-1.28,3.13-.57,4.85,3.36,9.49,7.14,13.78,11.22.9.86.94,2.28.08,3.18-.44.46-1.04.7-1.63.7Zm-142.66-11.11c-.71,0-1.42-.34-1.85-.97-.71-1.02-.45-2.42.57-3.13,4.88-3.37,10.05-6.38,15.35-8.95,1.12-.54,2.47-.07,3.01,1.04.54,1.12.07,2.47-1.04,3.01-5.1,2.47-10.07,5.37-14.76,8.61-.39.27-.84.4-1.28.4Zm104.09-12.95c-.26,0-.53-.05-.78-.14-5.32-1.98-10.85-3.56-16.42-4.7-1.22-.25-2-1.44-1.75-2.66.25-1.22,1.43-2.01,2.66-1.75,5.8,1.19,11.55,2.83,17.09,4.89,1.16.43,1.76,1.73,1.33,2.89-.34.91-1.2,1.47-2.11,1.47Zm-62.24-4.87c-1.05,0-1.99-.74-2.2-1.8-.25-1.22.54-2.41,1.76-2.65,5.79-1.17,11.72-1.9,17.64-2.18,1.21-.04,2.29.9,2.35,2.14.06,1.24-.9,2.29-2.14,2.35-5.69.26-11.39.97-16.96,2.09-.15.03-.3.05-.45.05Z"/>
          <path class="cls-61" d="m439.77,951.64c-1.16,0-2.15-.9-2.24-2.08-.23-2.93-.58-5.87-1.03-8.76-.19-1.23.64-2.38,1.87-2.58,1.23-.19,2.38.64,2.58,1.87.48,3,.84,6.07,1.07,9.11.1,1.24-.83,2.32-2.07,2.42-.06,0-.12,0-.18,0Z"/>
        </g>
        <path class="cls-60" d="m326.21,1012.68c-20.95,0-40.96-12.14-49.94-32.5-3.14-7.13-4.63-14.58-4.63-21.91,0-20.95,12.14-40.97,32.5-49.95,27.5-12.12,59.73.38,71.86,27.87h0c1.47,3.34,2.61,6.82,3.39,10.36.05.23.1.46.15.69l-6.61,1.36c-.68-3.31-1.72-6.56-3.1-9.69h0c-8.81-19.97-29.72-30.91-50.34-28.02-4.26.6-8.5,1.78-12.62,3.6-17.84,7.87-28.48,25.41-28.48,43.76,0,6.42,1.3,12.95,4.06,19.19,10.62,24.09,38.87,35.04,62.95,24.42,7.92-3.49,14.73-9.06,19.7-16.08l5.52,3.9c-5.67,8.03-13.45,14.38-22.49,18.37-7.13,3.14-14.58,4.63-21.92,4.63Z"/>
      </g>
      <g>
        <path class="cls-12" d="m444.12,1374.64s-2.13,12.03-3.17,23.94c-.41,4.66,3.18,8.7,7.85,8.89,15.86.66,49.79,1.95,61.96,1.4,1.83-.08,3.03-1.96,2.35-3.66h0c-.57-1.43-1.66-2.58-3.06-3.22l-56.04-25.76-9.9-1.6Z"/>
        <path class="cls-3" d="m442.38,1367.58l1.71,14.39s9.82,4.57,16.52-.58l-4.07-16.04-14.16,2.22Z"/>
        <path class="cls-10" d="m443.66,1097c-.74,3.76-3.96,187.55,15.69,269.91.32,1.34-.36,2.73-1.64,3.25-3.01,1.23-8.92,3.01-16,3.25-2.19.07-4.16-1.35-4.78-3.46-5.62-19.11-32.53-114.85-36.04-206.32-3.92-102.2,0-3.48,0-3.48l2.3-63.17h40.46Z"/>
        <path class="cls-41" d="m379.65,1380.92s-3.38,6.07-6.66,22.21c-.59,2.91,1.45,5.7,4.41,6,5.24.52,13.3,1.18,19.76,1.13,2.98-.02,5.3-2.61,4.94-5.57-.72-5.89-2.94-15.56-9.83-23.09l-12.62-.68Z"/>
        <path class="cls-42" d="m376.68,1362.41l3.99,21.76s3.94,2.93,11.75.81l-1.9-23.42-13.83.85Z"/>
        <path class="cls-39" d="m365.9,1102.64c-16.07,96.97,3.49,239.67,10.08,267.6.4,1.71,1.78,3.02,3.52,3.31,2.94.49,7.79.89,12.57-.5,1.65-.48,2.8-1.96,2.87-3.68.88-22.58-.71-161.2,14.26-215.99.76-2.78,2.45-5.2,4.8-6.87l29.06-20.66,2.23-33.39-79.38,10.17Z"/>
        <g>
          <path class="cls-40" d="m468.28,918.9c-48.15-.8-101.28,12.64-101.28,12.64-14.35,83.75-2.51,180.35-2.51,180.35,37.28,9.78,79.33-5.98,79.33-5.98,6.2-35.01,35.1-133.52,35.1-133.52,23.53-2.92,42.91-9.71,58.87-18.68-12.17-14.11-17.91-32.07-20.41-42.68-17.02,5.29-34.25,8.12-49.1,7.87Z"/>
          <path class="cls-35" d="m610.52,847.98c-4.73-5.71-10.72-3.01-10.72-3.01-7.09,29.93-44.24,54.2-82.41,66.06,2.49,10.61,8.23,28.57,20.41,42.68,63.35-35.62,72.72-105.74,72.72-105.74Z"/>
        </g>
        <g>
          <path class="cls-33" d="m609.37,849.43c.49,1.57-5.24,3.97-8.61-2.47-.12-3.08-1.99-16.3-.15-18.81,9.82-13.38,28.85-30.16,28.85-30.16,3.22,3.17.57,6.29.57,6.29l-9.23,9.62c1.93,3.49,4.29,6.43,5.39,10.66.84,3.2.32,6.61-1.29,9.52-1.62,2.92-3.83,6.71-5.92,9.68-3.96,5.62-9.6,5.66-9.6,5.66Z"/>
          <path class="cls-34" d="m616.75,820.15l-8.41,7.13-2.64,7.1,7.5,8.32s2.52-14.09,4.4-17.14c1.87-3.05.9-4.52-.84-5.42Z"/>
        </g>
        <path class="cls-38" d="m385.47,978.17l-18.47-46.63s-44.98,30.56-52.37,69.31c8.5.63,23.96,2.84,39.1,10.48,3.33-18.3,31.74-33.16,31.74-33.16Z"/>
        <path class="cls-36" d="m424.77,1022.05s-50.5,28.54-67.54,4.17c-3.54-5.06-4.38-10.09-3.51-14.88-15.14-7.64-30.6-9.85-39.1-10.48-2.23,11.68-1.05,24.1,5.81,36.66,29.85,54.6,111.02-3.02,111.02-3.02l-6.68-12.45Z"/>
        <g>
          <path class="cls-37" d="m418.71,1058.15l27.56-96.24c.31-1.09,1.24-1.89,2.37-2.02,4.99-.58,19.46-2.22,36.17-3.63,20.12-1.7,43.49-3.08,57.45-1.91,1.99.17,3.18,2.27,2.3,4.05-7.94,16.07-40.6,81.42-56.96,102.82-.54.71-1.38,1.12-2.27,1.12l-63.94-.59c-1.86-.02-3.19-1.8-2.68-3.59Z"/>
          <path class="cls-62" d="m487.67,947.91l19.98-3.33c1.06-.18,1.94.84,1.6,1.86l-1.98,5.99c-.17.52-.63.9-1.17.97l-19.23,2.57c-.99.13-1.81-.77-1.59-1.75l1.22-5.23c.13-.56.59-.99,1.16-1.09Z"/>
          <path class="cls-62" d="m472.71,964.82l1.65-8.57c.17-.86.88-1.51,1.75-1.6l40.36-4.1c1.36-.14,2.45,1.11,2.13,2.43l-2.57,10.68c-.21.85-.95,1.47-1.83,1.52l-39.44,1.99c-1.28.06-2.29-1.09-2.05-2.35Z"/>
          <path class="cls-48" d="m425.37,1034.9s-3.84-15.79-2.29-21.39c1.55-5.6,4.55-12.8,14.55-11.2,10,1.6,21.8,5.81,21.8,5.81,0,0-.6,7.3-8.2,4.94l4.71,3.65s-.67,5.84-7.09,2.72l4.38,4.84s-2.76,4.8-7.48,1.72c-4.72-3.08-6.99,10.81-20.38,8.91Z"/>
        </g>
        <path class="cls-46" d="m419.51,879.81l-15.32,44.31c-.25.73.05,1.55.73,1.92,4.18,2.31,19.22,8.98,37.36-2.51,1.89-1.2,3.17-3.15,3.46-5.37l4.96-38.35h-31.19Z"/>
        <g>
          <path class="cls-47" d="m452.85,838.78s16.82,31.67,14.67,44.46c-2.16,12.79-23.01,11.87-41.22,1.48l-12.72-34.2,39.27-11.75Z"/>
          <path class="cls-45" d="m427.1,867.93c.74-.33,1.01-1.23.57-1.91-1.35-2.06-3.87-6.26-4.68-9.94,0,0-3.02-1.94,7.7-4.5,10.72-2.57,26.71-6.55,30.07-15.68,3.28-8.9-5.33-31.28-19.07-13.45-.52.68-1.55.69-2.07.01-2.25-2.93-8.17-9.01-16.39-5.33-7.69,3.45-8.56,9.09-8.45,11.93.03.84-.72,1.49-1.54,1.33-3.89-.74-13.22-1.38-17.58,8.19-3.59,7.89-1.26,12.35.87,14.53.69.71.39,1.87-.56,2.16-2.56.78-5.86,2.95-5.53,8.94.46,8.28,9.71,7.55,12.35,7.17.43-.06.87.09,1.16.41,2.26,2.5,12.44,13.12,23.46,14.4.95.11,1.69-.83,1.38-1.74l-4.77-13.86c-.22-.64.09-1.35.71-1.63l2.36-1.05Z"/>
          <path class="cls-49" d="m429.02,869.9s-11.98-8.22-12.85-1.3c-.88,6.92,10.79,10.03,16.56,7.44l-3.71-6.15Z"/>
        </g>
      </g>
      <path class="cls-43" d="m1348.93,1364.65c-3.8,21.63-21.72,38.06-43.96,40.27-1.67.16-3.38.25-5.09.25h-393.32c-1.71,0-3.42-.09-5.09-.25-22.24-2.21-40.16-18.64-43.96-40.27h491.42Z"/>
      <path class="cls-44" d="m1236.22,252.7h-270.2c3.11-9.23,11.5-15.76,20.78-15.76h231.55c9.27,0,15.67,6.53,17.87,15.76Z"/>
      <g>
        <path class="cls-63" d="m1569.83,246.64c-.33,0-.67-.1-.97-.31-1.22-.85-2.44-1.7-3.68-2.54-.77-.52-.98-1.57-.45-2.34.52-.77,1.57-.98,2.34-.45,1.26.85,2.5,1.71,3.73,2.58.76.54.95,1.59.41,2.35-.33.47-.85.72-1.38.72Z"/>
        <path class="cls-63" d="m818.97,1202.58h-.09c-2.99,0-5.99-.57-8.99-.78-.93-.07-1.63-.98-1.57-1.91.07-.93.91-1.69,1.8-1.62,2.98.21,5.96.37,8.93.53.93.05,1.64,1.05,1.59,1.98-.05.9-.79,1.8-1.68,1.8Zm-20.14-1.9c-.05,0-.11,0-.16,0-2.99-.28-5.97-.58-8.96-.92-.93-.1-1.59-.94-1.49-1.87.11-.93.97-1.59,1.87-1.49,2.96.33,5.93.64,8.89.91.93.09,1.61.91,1.53,1.84-.08.88-.82,1.53-1.68,1.53Zm-20.06-2.33c-.08,0-.16,0-.24-.02-2.97-.42-5.95-.87-8.91-1.36-.92-.15-1.54-1.02-1.39-1.94.15-.92,1.04-1.54,1.94-1.39,2.94.49,5.88.94,8.83,1.35.92.13,1.57.98,1.44,1.91-.12.84-.84,1.45-1.67,1.45Zm-19.91-3.37c-.11,0-.22,0-.33-.03-2.95-.59-5.89-1.22-8.82-1.89-.91-.21-1.47-1.11-1.27-2.02.21-.91,1.12-1.48,2.02-1.27,2.9.67,5.81,1.29,8.73,1.87.91.18,1.51,1.07,1.33,1.99-.16.8-.86,1.36-1.65,1.36Zm-19.66-4.6c-.15,0-.29-.02-.44-.06-2.91-.79-5.8-1.62-8.68-2.5-.89-.27-1.39-1.22-1.12-2.11.27-.89,1.21-1.4,2.11-1.12,2.84.87,5.7,1.69,8.57,2.47.9.24,1.43,1.17,1.19,2.07-.2.75-.88,1.25-1.63,1.25Zm-19.28-5.99c-.18,0-.37-.03-.55-.09-2.85-.99-5.68-2.01-8.48-3.06-.87-.33-1.31-1.3-.99-2.17.33-.87,1.3-1.31,2.17-.99,2.78,1.04,5.58,2.05,8.4,3.03.88.31,1.35,1.27,1.04,2.15-.24.7-.89,1.13-1.59,1.13Zm-18.86-7.17c-.22,0-.44-.04-.65-.13-2.78-1.16-5.54-2.36-8.27-3.61-.85-.39-1.22-1.39-.84-2.24.39-.85,1.39-1.22,2.24-.84,2.69,1.23,5.42,2.42,8.17,3.56.86.36,1.27,1.35.91,2.21-.27.65-.9,1.04-1.56,1.04Zm-18.32-8.46c-.26,0-.52-.06-.77-.19-2.69-1.38-5.37-2.82-7.96-4.28-.81-.46-1.1-1.49-.64-2.3.46-.81,1.49-1.09,2.3-.64,2.56,1.44,5.19,2.86,7.84,4.22.83.43,1.16,1.44.73,2.27-.3.58-.89.92-1.51.92Zm-17.51-10.03c-.31,0-.63-.09-.91-.27-2.57-1.65-5.1-3.35-7.51-5.06-.76-.54-.94-1.59-.4-2.35.53-.76,1.58-.94,2.35-.4,2.37,1.68,4.85,3.35,7.37,4.97.78.5,1.01,1.55.51,2.33-.32.5-.87.78-1.42.78Zm-16.38-11.79c-.37,0-.75-.12-1.06-.38-2.35-1.9-4.67-3.88-6.89-5.88-.69-.62-.75-1.69-.13-2.39.63-.69,1.69-.75,2.38-.13,2.18,1.96,4.45,3.9,6.76,5.77.73.59.84,1.65.25,2.37-.33.41-.82.63-1.31.63Zm-14.91-13.61c-.44,0-.88-.17-1.21-.51-2.1-2.16-4.16-4.41-6.13-6.67-.61-.7-.54-1.77.17-2.38.7-.61,1.77-.54,2.38.17,1.93,2.22,3.95,4.42,6.01,6.54.65.67.63,1.74-.04,2.39-.33.32-.75.48-1.18.48Zm-13.14-15.31c-.51,0-1.02-.23-1.35-.67-1.33-1.76-2.64-3.56-3.93-5.4-.45-.65-.91-1.31-1.35-1.96-.52-.77-.32-1.82.45-2.34.77-.52,1.82-.32,2.34.45.44.64.87,1.28,1.32,1.92,1.26,1.81,2.55,3.57,3.85,5.3.56.74.42,1.8-.33,2.36-.31.23-.66.34-1.02.34Zm-11.2-16.78c-.58,0-1.15-.3-1.46-.84-1.52-2.6-2.99-5.28-4.35-7.95-.42-.83-.09-1.85.73-2.27.83-.43,1.85-.09,2.27.73,1.34,2.62,2.77,5.24,4.26,7.79.47.81.2,1.84-.61,2.31-.27.16-.56.23-.85.23Zm-9.07-18.03c-.66,0-1.28-.38-1.55-1.03-1.18-2.78-2.3-5.61-3.31-8.43-.32-.88.14-1.84,1.01-2.16.87-.32,1.85.14,2.16,1.02,1,2.76,2.09,5.54,3.24,8.26.36.86-.04,1.85-.89,2.21-.22.09-.44.13-.66.13Zm-6.7-19.02c-.74,0-1.42-.49-1.62-1.23-.82-2.9-1.57-5.86-2.22-8.79-.2-.91.37-1.81,1.28-2.01.89-.2,1.81.37,2.02,1.28.64,2.87,1.37,5.76,2.17,8.6.25.9-.27,1.83-1.16,2.08-.15.04-.31.06-.46.06Zm-4.27-19.72c-.82,0-1.54-.6-1.67-1.44-.45-2.97-.83-6-1.12-8.99-.09-.93.59-1.75,1.51-1.84.96-.09,1.76.59,1.84,1.52.29,2.93.66,5.9,1.1,8.81.14.92-.49,1.78-1.42,1.92-.09.01-.17.02-.26.02Zm-1.83-19.73c-.91,0-1.66-.91-1.69-1.82-.06-1.94-.09-3.98-.09-5.92,0-1.08,0-2.2.03-3.27.02-.93.76-1.68,1.72-1.68.93.02,1.68.78,1.66,1.71-.02,1.05-.03,2.1-.03,3.16,0,1.91.03,4,.09,5.91.03.93-.7,1.92-1.63,1.92h-.06Zm.48-20.55s-.09,0-.13,0c-.93-.07-1.62-.88-1.55-1.81.23-2.96.54-6,.91-9.01.11-.93.96-1.59,1.88-1.47.93.12,1.58.96,1.47,1.88-.37,2.96-.67,5.94-.9,8.86-.07.88-.81,1.56-1.68,1.56Zm2.61-20.03c-.1,0-.2,0-.3-.03-.92-.16-1.53-1.04-1.36-1.96.53-2.92,1.14-5.91,1.8-8.88.2-.91,1.1-1.48,2.02-1.27.91.2,1.48,1.11,1.27,2.02-.66,2.92-1.26,5.86-1.77,8.73-.15.82-.86,1.39-1.66,1.39Zm4.53-19.69c-.15,0-.3-.02-.45-.06-.9-.25-1.42-1.18-1.17-2.08.79-2.85,1.67-5.76,2.6-8.67.29-.89,1.24-1.38,2.12-1.09.89.29,1.38,1.24,1.09,2.12-.92,2.87-1.78,5.74-2.57,8.54-.21.75-.89,1.24-1.63,1.24Zm6.28-19.21c-.2,0-.4-.03-.59-.11-.87-.33-1.32-1.3-.99-2.17,1.05-2.79,2.17-5.63,3.32-8.41.36-.86,1.35-1.27,2.21-.91.86.36,1.27,1.35.91,2.21-1.14,2.75-2.25,5.54-3.28,8.3-.25.68-.9,1.1-1.58,1.1Zm7.84-18.62c-.24,0-.48-.05-.72-.16-.84-.4-1.21-1.4-.81-2.25,1.27-2.73,2.61-5.46,3.97-8.12.42-.83,1.44-1.16,2.27-.74.83.42,1.16,1.44.74,2.27-1.35,2.65-2.66,5.33-3.92,8.02-.29.61-.9.97-1.53.97Zm9.24-17.96c-.28,0-.56-.07-.83-.22-.81-.46-1.1-1.49-.64-2.3,1.48-2.62,3-5.22,4.56-7.8.49-.8,1.52-1.05,2.32-.57.8.48,1.05,1.52.57,2.32-1.54,2.54-3.04,5.11-4.5,7.7-.31.55-.88.86-1.47.86Zm10.54-17.23c-.32,0-.64-.09-.93-.28-.78-.52-.99-1.56-.47-2.34,1.66-2.51,3.36-4.99,5.1-7.45.54-.76,1.59-.95,2.35-.4.76.54.94,1.59.4,2.35-1.72,2.42-3.4,4.88-5.04,7.36-.32.49-.86.76-1.41.76Zm11.72-16.43c-.36,0-.72-.11-1.03-.35-.74-.57-.88-1.63-.31-2.37,1.84-2.39,3.7-4.74,5.61-7.07.59-.72,1.66-.83,2.38-.24.72.59.83,1.65.24,2.38-1.88,2.29-3.73,4.62-5.54,6.98-.33.43-.83.66-1.34.66Zm12.84-15.56c-.4,0-.8-.14-1.12-.43-.7-.62-.76-1.68-.14-2.38,2-2.25,4.03-4.47,6.08-6.65.64-.68,1.71-.71,2.39-.07.68.64.71,1.71.07,2.39-2.03,2.15-4.04,4.34-6.01,6.57-.33.38-.8.57-1.26.57Zm13.91-14.61c-.44,0-.88-.17-1.21-.51-.65-.67-.64-1.74.03-2.39,2.16-2.11,4.35-4.18,6.57-6.2.69-.63,1.76-.58,2.39.11.63.69.58,1.76-.11,2.39-2.18,2-4.35,4.04-6.48,6.13-.33.32-.75.48-1.18.48Zm14.97-13.56c-.48,0-.96-.21-1.29-.6-.6-.71-.5-1.78.21-2.38,2.3-1.93,4.67-3.84,7.03-5.68.73-.58,1.79-.44,2.37.29.57.74.44,1.8-.29,2.37-2.33,1.82-4.66,3.7-6.93,5.61-.31.26-.7.39-1.08.39Zm15.99-12.34c-.53,0-1.05-.25-1.38-.71-.54-.76-.36-1.81.4-2.35,1.23-.87,2.46-1.73,3.7-2.56,1.25-.85,2.51-1.69,3.78-2.51.78-.51,1.82-.29,2.34.49.51.78.29,1.83-.49,2.34-1.25.82-2.49,1.64-3.73,2.48-1.22.83-2.43,1.67-3.64,2.53-.3.21-.64.31-.97.31Zm16.93-10.97c-.58,0-1.14-.29-1.45-.83-.48-.8-.21-1.84.59-2.31,2.59-1.54,5.19-3.03,7.82-4.48.82-.45,1.84-.15,2.29.66.45.82.15,1.84-.66,2.29-2.59,1.43-5.17,2.9-7.73,4.42-.27.16-.57.24-.86.24Zm17.69-9.66c-.62,0-1.22-.34-1.51-.93-.42-.83-.08-1.85.76-2.26,2.69-1.34,5.4-2.65,8.13-3.9.84-.4,1.85-.02,2.24.82.39.85.02,1.85-.82,2.24-2.69,1.25-5.37,2.53-8.03,3.86-.24.12-.5.18-.75.18Zm18.34-8.39c-.66,0-1.29-.39-1.56-1.04-.36-.86.05-1.85.91-2.21,2.78-1.16,5.57-2.27,8.37-3.35.87-.33,1.85.1,2.18.97.33.87-.1,1.85-.97,2.18-2.78,1.06-5.54,2.17-8.29,3.31-.21.09-.43.13-.65.13Zm18.88-7.16c-.7,0-1.35-.44-1.6-1.14-.3-.88.16-1.84,1.05-2.15,2.84-.98,5.7-1.92,8.57-2.83.89-.28,1.84.21,2.12,1.1.28.89-.21,1.84-1.1,2.12-2.84.9-5.67,1.83-8.48,2.8-.18.06-.37.09-.55.09Zm19.28-6.02c-.74,0-1.42-.49-1.62-1.23-.25-.9.27-1.83,1.17-2.08,2.89-.81,5.79-1.59,8.71-2.34.89-.23,1.82.31,2.06,1.22.23.9-.31,1.82-1.22,2.06-2.89.74-5.77,1.51-8.63,2.32-.15.04-.31.06-.46.06Zm19.57-4.96c-.77,0-1.47-.53-1.64-1.32-.21-.91.36-1.81,1.27-2.02,2.93-.66,5.87-1.3,8.82-1.9.92-.18,1.8.4,1.99,1.32.19.91-.4,1.81-1.31,1.99-2.92.6-5.84,1.23-8.75,1.89-.13.03-.25.04-.38.04Zm19.8-4.01c-.8,0-1.51-.57-1.66-1.39-.16-.92.45-1.79,1.36-1.96,2.96-.53,5.92-1.03,8.89-1.51.93-.15,1.79.48,1.93,1.4.15.92-.48,1.79-1.4,1.93-2.95.47-5.89.97-8.82,1.5-.1.02-.2.03-.3.03Zm403.31-1.88c-.93,0-1.69-1.01-1.69-1.95,0-.93.75-2.1,1.68-2.1,2.99,0,5.98-.46,8.97-.46h.01c.93,0,1.68,1.02,1.69,1.95,0,.93-.74,2.09-1.68,2.1-3,.03-5.99.45-8.99.45h0Zm-11.22,0h0c-3,0-6-.3-8.99-.32-.93,0-1.68-.9-1.67-1.84,0-.93.76-1.66,1.7-1.74,2.99.03,5.98.01,8.98.03.93,0,1.69,1.01,1.68,1.94,0,.93-.76,1.93-1.69,1.93Zm31.43,0c-.92,0-1.67-1.09-1.69-2.01-.02-.93.73-1.88,1.66-1.89,2.99-.05,5.98-.19,8.97-.26,1.01-.03,1.7.68,1.73,1.61.02.93-.72,2.03-1.65,2.06-2.99.07-5.99.5-8.99.5h-.03Zm-51.64,0h-.02c-3-2.25-6-.46-8.99-.51-.93-.02-1.67-.97-1.66-1.9.02-.93.76-1.76,1.72-1.75,2.99.06,5.98.06,8.98.11.93.01,1.68,1.12,1.66,2.05-.01.92-.77,2-1.69,2Zm-20.21-2.25h-.04c-3,0-6,.42-9,.34-.93-.03-1.67-.52-1.64-1.45.03-.93.81-1.59,1.73-1.5,2.99.08,5.98.23,8.98.3.93.02,1.67.26,1.65,1.2-.02.92-.77,1.12-1.69,1.12Zm92.05,0c-.91,0-1.66-.19-1.69-1.1-.03-.93.7-1.44,1.64-1.47,2.99-.09,5.97-.06,8.96-.18,1.04-.05,1.72.76,1.75,1.69.04.93-.69,1.21-1.62,1.25-2.99.11-5.98-.19-8.98-.19h-.05Zm-423.75.98c-.83,0-1.55-.61-1.67-1.46-.13-.92.52-1.78,1.44-1.9,2.97-.41,5.95-.8,8.93-1.16.93-.1,1.77.55,1.88,1.47.11.93-.55,1.77-1.47,1.88-2.96.36-5.92.74-8.88,1.15-.08,0-.16.02-.23.02Zm311.48-.98h-9.05c-.93-.04-1.66-1.38-1.63-2.31.03-.91.78-2.19,1.69-2.19h.06l8.99,1c.93.03,1.66.87,1.64,1.8-.03.91-.78,1.7-1.69,1.7Zm132.44,0c-.89,0-1.64-.56-1.68-1.47-.05-.93.67-1.65,1.6-1.7,2.98-.14,5.97-.27,8.94-.43.84-.05,1.73.68,1.78,1.61.05.93-.66,1.6-1.59,1.65-2.99.17-5.97.34-8.97.34h-.08Zm-152.64,0h-.06l-8.98-.4c-.93-.04-1.66-1.18-1.62-2.12.04-.91.78-1.98,1.68-1.98h.07l8.97.67c.93.03,1.66,1.04,1.62,1.98-.03.91-.78,1.85-1.68,1.85Zm172.78-.88c-.88,0-1.62-.68-1.68-1.57-.06-.93.64-1.73,1.57-1.8,2.98-.2,5.95-.42,8.92-.64.94-.05,1.74.63,1.81,1.55.07.93-.62,1.74-1.55,1.81-2.98.23-5.96.44-8.95.65-.04,0-.08,0-.12,0Zm-192.96-1.37h-.07l-8.97.3c-.93-.04-1.66-.49-1.62-1.42.04-.93.86-1.5,1.76-1.45l8.97.46c.93.04,1.66.2,1.62,1.13-.04.91-.78.99-1.68.99Zm-251.04.82c-.86,0-1.59-.65-1.68-1.52-.09-.93.58-1.76,1.51-1.85,2.99-.31,5.97-.59,8.96-.86.91-.08,1.75.6,1.83,1.53.08.93-.6,1.75-1.53,1.83-2.97.26-5.94.55-8.91.85-.06,0-.12,0-.18,0Zm230.86-.82h-.07l-8.97-.15c-.93-.04-1.66-.71-1.61-1.64.04-.93.9-1.58,1.76-1.55l8.97.42c.93.04,1.66.6,1.61,1.53-.04.91-.79,1.39-1.68,1.39Zm233.24-.2c-.86,0-1.6-.66-1.68-1.54-.08-.93.6-1.75,1.53-1.83,2.97-.27,5.94-.55,8.9-.84.93-.11,1.76.58,1.85,1.51.09.93-.58,1.75-1.51,1.85-2.97.3-5.95.58-8.93.84-.05,0-.1,0-.15,0Zm-253.41.2h-.07l-8.97-.59c-.93-.04-1.65-.93-1.61-1.86.04-.93.85-1.73,1.76-1.67l8.97.36c.93.04,1.66,1.02,1.61,1.95-.04.91-.79,1.8-1.68,1.8Zm-190.57-.94c-.88,0-1.62-.68-1.68-1.57-.07-.93.63-1.74,1.56-1.81,2.99-.22,5.98-.42,8.98-.6.88-.06,1.73.65,1.79,1.58.05.93-.65,1.73-1.58,1.79-2.98.18-5.96.38-8.94.6-.04,0-.08,0-.13,0Zm170.39-1.31h-.07l-8.97.13c-.93-.04-1.66-.57-1.62-1.51.04-.93.91-1.52,1.75-1.5l8.97.42c.93.04,1.66.36,1.62,1.29-.04.91-.78,1.15-1.68,1.15Zm-20.19,0h-.06c-3.01,0-6-.11-8.96-.21-.93-.03-1.66-.76-1.63-1.69.03-.93.77-1.68,1.74-1.61,2.96.1,5.96.21,8.97.32.93.03,1.66.72,1.62,1.65-.03.91-.78,1.53-1.68,1.53Zm-130.05,0c-.89,0-1.64-.65-1.68-1.55-.04-.93.67-1.7,1.61-1.74,3-.14,5.99-.26,8.98-.37.94-.03,1.72.7,1.75,1.63.04.93-.69,1.67-1.62,1.7-2.98.11-5.96.33-8.95.33h-.08Zm443.87.02c-.85,0-1.58-.64-1.67-1.5-.11-.93.56-1.76,1.49-1.87,2.97-.34,5.94-.69,8.89-1.06.95-.11,1.77.54,1.89,1.47.12.93-.54,1.77-1.46,1.89-2.97.37-5.95.73-8.93,1.07-.07,0-.13.01-.19.01Zm-334.01-.02h-.05c-3.02,0-6.01-.38-8.96-.45-.93-.02-1.67-.91-1.65-1.84.02-.93.82-1.69,1.73-1.71,2.96.07,5.96.11,8.98.2.93.03,1.67,1.01,1.64,1.94-.03.92-.78,1.85-1.69,1.85Zm-89.69,0c-.91,0-1.66-1.04-1.69-1.96-.02-.93.71-1.87,1.64-1.89,3-.08,5.99-.23,8.98-.28.94-.01,1.7.68,1.72,1.62.02.93-.72,2-1.66,2.02-2.98.06-5.96.5-8.95.5h-.04Zm69.5-2.25h-.02c-2.02,0-4.03.63-6.02.61l-2.95.32c-.93,0-1.68-.67-1.67-1.61,0-.93.76-1.58,1.69-1.58h.02l2.95.1c1.99.02,4.01.08,6.03.11.93.01,1.68.11,1.66,1.04-.01.92-.77,1-1.69,1Zm-49.33,0c-.93,0-1.68-.12-1.69-1.05,0-.93.74-1.41,1.67-1.42,3-.03,5.99.22,8.97.22h0c.93,0,1.69.78,1.69,1.71,0,.93-.75,1.08-1.68,1.09-2.98.01-5.96-.54-8.95-.54h-.02Zm29.14,0h0c-2.98,0-5.97.57-8.97.57-.93,0-2.01-.46-2.01-1.39,0-.93,1.36-1.49,1.36-1.49v.05c4.5,0,6.32.04,9.31.06.93,0,1.85.18,1.84,1.11,0,.93-.6,1.09-1.53,1.09Zm394.43-.28c-.83,0-1.55-.61-1.67-1.45-.13-.92.51-1.78,1.44-1.91,2.96-.42,5.92-.85,8.86-1.31.91-.14,1.78.49,1.93,1.41.14.92-.49,1.78-1.41,1.93-2.96.46-5.92.9-8.9,1.32-.08.01-.16.02-.24.02Zm19.95-3.12c-.81,0-1.52-.58-1.66-1.4-.16-.92.46-1.79,1.38-1.95,2.95-.51,5.89-1.04,8.81-1.58.9-.17,1.8.43,1.97,1.35.17.92-.43,1.8-1.35,1.97-2.94.55-5.89,1.08-8.86,1.59-.1.02-.19.02-.29.02Zm19.84-3.76c-.78,0-1.49-.55-1.65-1.34-.19-.91.4-1.81,1.31-2,2.93-.61,5.84-1.24,8.75-1.89.91-.21,1.81.37,2.02,1.28.2.91-.37,1.81-1.27,2.02-2.92.66-5.86,1.29-8.8,1.9-.11.02-.23.04-.35.04Zm19.69-4.48c-.76,0-1.45-.51-1.64-1.28-.22-.91.33-1.82,1.23-2.05,2.91-.72,5.79-1.46,8.66-2.23.92-.24,1.83.3,2.07,1.19.24.9-.29,1.83-1.19,2.07-2.89.77-5.8,1.52-8.72,2.25-.14.03-.27.05-.41.05Zm19.5-5.27c-.73,0-1.4-.48-1.62-1.21-.26-.89.25-1.83,1.14-2.1,2.87-.85,5.72-1.72,8.55-2.61.89-.28,1.84.21,2.12,1.1.28.89-.21,1.84-1.1,2.12-2.85.9-5.73,1.78-8.62,2.63-.16.05-.32.07-.48.07Zm19.23-6.16c-.7,0-1.35-.44-1.59-1.13-.31-.88.16-1.84,1.04-2.15,2.82-.98,5.62-1.99,8.4-3.03.86-.32,1.85.12,2.17.99.33.87-.11,1.85-.99,2.17-2.8,1.05-5.63,2.07-8.48,3.06-.18.06-.37.09-.55.09Zm18.88-7.14c-.66,0-1.29-.39-1.56-1.05-.35-.86.06-1.85.92-2.2,2.77-1.13,5.5-2.3,8.22-3.5.85-.37,1.85,0,2.23.86.38.85-.01,1.85-.86,2.23-2.74,1.21-5.51,2.39-8.3,3.53-.21.09-.43.13-.64.13Zm18.44-8.22c-.63,0-1.23-.35-1.52-.95-.41-.84-.05-1.85.78-2.25,2.69-1.3,5.35-2.63,7.98-4,.83-.43,1.84-.11,2.28.72.43.83.11,1.85-.72,2.28-2.66,1.38-5.35,2.73-8.07,4.05-.24.11-.49.17-.73.17Zm17.87-9.39c-.59,0-1.16-.31-1.47-.85-.46-.81-.18-1.84.63-2.3,2.59-1.48,5.15-2.99,7.67-4.54.79-.49,1.83-.24,2.32.55.49.79.24,1.83-.55,2.32-2.56,1.57-5.15,3.1-7.76,4.6-.26.15-.55.22-.84.22Zm17.15-10.64c-.54,0-1.07-.26-1.4-.74-.52-.77-.32-1.82.45-2.34,2.46-1.66,4.91-3.38,7.28-5.1.75-.55,1.81-.38,2.36.37.55.75.38,1.81-.37,2.36-2.4,1.75-4.88,3.48-7.37,5.17-.29.2-.62.29-.94.29Zm16.22-11.93c-.49,0-.98-.22-1.32-.63-.58-.73-.46-1.79.26-2.37,1.95-1.56,3.88-3.16,5.78-4.78l1.06-.91c.7-.61,1.77-.54,2.38.17.61.7.53,1.77-.17,2.38l-1.07.92c-1.93,1.65-3.88,3.27-5.86,4.85-.31.25-.68.37-1.06.37Zm15.21-13.25c-.45,0-.9-.18-1.23-.53-.64-.68-.61-1.75.07-2.39,2.15-2.02,4.3-4.12,6.39-6.22.66-.66,1.73-.66,2.39,0,.66.66.67,1.73,0,2.39-2.12,2.13-4.3,4.25-6.47,6.3-.33.31-.74.46-1.16.46Zm14.18-14.38c-.41,0-.82-.15-1.14-.44-.69-.63-.73-1.7-.1-2.38,2.01-2.19,3.98-4.42,5.92-6.67.61-.71,1.67-.79,2.38-.18.71.61.79,1.67.18,2.38-1.96,2.28-3.96,4.54-5.99,6.76-.33.36-.79.55-1.24.55Zm13.09-15.37c-.37,0-.74-.12-1.05-.37-.73-.58-.85-1.64-.27-2.37,1.85-2.33,3.66-4.69,5.44-7.08.56-.75,1.62-.9,2.36-.35.75.56.9,1.61.35,2.36-1.8,2.42-3.63,4.8-5.5,7.16-.33.42-.83.64-1.33.64Zm12-16.25c-.33,0-.66-.1-.95-.3-.77-.53-.96-1.58-.44-2.35,1.68-2.45,3.33-4.93,4.94-7.44.51-.78,1.55-1.01,2.33-.51.78.5,1.01,1.55.51,2.33-1.63,2.53-3.3,5.04-4.99,7.52-.33.48-.86.73-1.4.73Zm10.86-17.03c-.29,0-.59-.08-.86-.24-.8-.47-1.07-1.51-.59-2.31,1.51-2.56,3-5.14,4.44-7.75.45-.81,1.47-1.11,2.29-.66.82.45,1.11,1.48.66,2.29-1.46,2.63-2.95,5.24-4.48,7.83-.31.53-.88.83-1.46.83Zm9.72-17.7c-.26,0-.52-.06-.76-.18-.83-.42-1.16-1.44-.74-2.27,1.35-2.65,2.66-5.33,3.92-8.02.4-.85,1.41-1.2,2.25-.81.84.4,1.2,1.4.81,2.25-1.29,2.72-2.61,5.42-3.97,8.11-.3.59-.89.92-1.51.92Zm8.55-18.29c-.22,0-.45-.04-.67-.14-.86-.37-1.25-1.36-.89-2.22,1.17-2.73,2.31-5.49,3.41-8.25.35-.87,1.32-1.29,2.19-.95.87.34,1.29,1.33.95,2.19-1.11,2.8-2.26,5.58-3.44,8.34-.27.64-.9,1.02-1.55,1.02Zm7.37-18.8c-.19,0-.38-.03-.57-.1-.88-.31-1.34-1.28-1.02-2.16,1-2.8,1.96-5.62,2.88-8.45.29-.89,1.24-1.37,2.13-1.08.89.29,1.37,1.24,1.08,2.13-.93,2.86-1.9,5.71-2.91,8.54-.25.69-.89,1.12-1.59,1.12Zm6.18-19.22c-.15,0-.31-.02-.47-.07-.9-.26-1.41-1.19-1.16-2.09.82-2.86,1.6-5.73,2.34-8.61.23-.9,1.17-1.44,2.06-1.21.9.23,1.45,1.15,1.22,2.06-.75,2.91-1.54,5.81-2.37,8.7-.21.74-.89,1.22-1.62,1.22Zm4.96-19.57c-.12,0-.24-.01-.36-.04-.91-.2-1.49-1.1-1.29-2.01.64-2.91,1.24-5.82,1.8-8.74.17-.92,1.06-1.52,1.97-1.34.92.17,1.52,1.06,1.34,1.97-.56,2.95-1.17,5.9-1.82,8.84-.17.79-.87,1.32-1.65,1.32Zm3.71-19.84c-.09,0-.17,0-.26-.02-.92-.14-1.55-1-1.41-1.93.45-2.94.87-5.89,1.24-8.84.12-.93.97-1.59,1.88-1.47.93.12,1.58.96,1.47,1.88-.37,2.98-.79,5.96-1.25,8.93-.13.83-.85,1.43-1.67,1.43Zm2.44-20.03c-.05,0-.1,0-.15,0-.93-.08-1.61-.9-1.53-1.83.26-2.97.48-5.93.66-8.9.06-.93.87-1.62,1.79-1.58.93.06,1.64.86,1.58,1.79-.18,3-.4,6-.67,8.99-.08.88-.82,1.54-1.68,1.54Zm1.12-21.49h-.04c-.93,0-1.67-.12-1.65-1.06.05-2.24.08-4.15.08-6.38v-2.16c-.02-.93.74-1.66,1.67-1.66h.01c.93,0,1.68.88,1.69,1.8v2.28c0,2.27-.02,3.9-.07,6.16-.02.92-.77,1.01-1.69,1.01Zm-.23-20.26c-.9,0-1.64,0-1.68-.9-.14-2.97-.32-5.58-.55-8.55-.07-.93.62-1.56,1.55-1.64.92-.07,1.74.71,1.81,1.64.23,3,.41,5.33.55,8.34.04.93-.68,1.1-1.61,1.1h-.08Zm-1.63-18.7c-.84,0-1.57-.63-1.68-1.49-.35-2.95-.74-5.9-1.18-8.84-.14-.92.5-1.78,1.42-1.92.92-.15,1.78.5,1.92,1.42.44,2.97.84,5.95,1.19,8.95.11.93-.56,1.76-1.48,1.87-.07,0-.13.01-.2.01Zm-3.07-19.95c-.79,0-1.5-.56-1.66-1.37-.55-2.89-1.17-5.82-1.83-8.72-.21-.91.36-1.81,1.27-2.02.9-.2,1.81.36,2.02,1.27.67,2.94,1.29,5.91,1.85,8.84.18.92-.42,1.8-1.34,1.98-.11.02-.21.03-.32.03Zm-4.55-19.66c-.74,0-1.42-.49-1.63-1.24-.78-2.86-1.62-5.74-2.49-8.56-.28-.89.22-1.84,1.11-2.11.9-.28,1.84.22,2.11,1.11.89,2.85,1.74,5.77,2.53,8.67.25.9-.29,1.83-1.18,2.07-.15.04-.3.06-.44.06Zm-6.08-19.25c-.69,0-1.34-.43-1.59-1.12-.99-2.76-2.06-5.56-3.17-8.33-.35-.86.07-1.85.93-2.2.86-.35,1.85.07,2.2.94,1.13,2.8,2.21,5.64,3.22,8.44.31.88-.14,1.84-1.02,2.16-.19.07-.38.1-.57.1Zm-7.63-18.69c-.64,0-1.25-.37-1.53-.99-1.24-2.7-2.54-5.41-3.86-8.03-.42-.83-.08-1.85.75-2.27.83-.42,1.85-.08,2.27.75,1.34,2.66,2.66,5.41,3.91,8.15.39.85.02,1.85-.83,2.24-.23.1-.47.15-.7.15Zm-9.17-17.99c-.59,0-1.16-.31-1.47-.86-1.47-2.59-2.99-5.17-4.54-7.67-.49-.79-.25-1.83.55-2.32.8-.49,1.84-.24,2.32.55,1.57,2.54,3.12,5.16,4.61,7.78.46.81.17,1.84-.64,2.3-.26.15-.55.22-.83.22Zm-10.71-17.12c-.54,0-1.07-.26-1.39-.73-1.66-2.42-3.41-4.86-5.2-7.24-.56-.75-.41-1.8.34-2.36.75-.56,1.81-.41,2.37.34,1.81,2.42,3.59,4.9,5.28,7.35.53.77.33,1.82-.44,2.35-.29.2-.62.3-.95.3Zm-12.2-16.11c-.48,0-.97-.21-1.3-.61-1.87-2.25-3.83-4.52-5.82-6.74-.62-.69-.57-1.76.13-2.38.69-.62,1.76-.57,2.38.13,2.03,2.25,4.01,4.55,5.91,6.84.6.72.5,1.78-.22,2.38-.31.26-.7.39-1.08.39Zm-13.57-14.94c-.43,0-.87-.17-1.2-.5-2.08-2.09-4.23-4.17-6.4-6.19-.68-.64-.72-1.7-.09-2.39.64-.68,1.7-.72,2.39-.09,2.2,2.05,4.39,4.16,6.5,6.28.66.66.65,1.73,0,2.39-.33.33-.76.49-1.19.49Zm-14.85-13.67c-.38,0-.77-.13-1.09-.4-2.24-1.89-4.57-3.78-6.92-5.6-.73-.57-.87-1.63-.29-2.37.57-.73,1.63-.87,2.37-.3,2.39,1.85,4.75,3.77,7.03,5.68.71.6.8,1.66.2,2.38-.33.4-.81.6-1.29.6Z"/>
        <path class="cls-63" d="m835.05,1202.58h-.05c-1.5,0-3,.03-4.51-.03-.93-.04-1.66-.76-1.62-1.69.03-.93.77-1.67,1.75-1.59,1.5.06,2.99.12,4.49.17.93.03,1.66.69,1.64,1.62-.03.91-.78,1.52-1.69,1.52Z"/>
      </g>
    </g>
  </g>
</svg>